<?xml version="1.0" encoding="UTF-8" standalone="no"?>
<!-- Created with Inkscape (http://www.inkscape.org/) -->

<svg
   xmlns:dc="http://purl.org/dc/elements/1.1/"
   xmlns:cc="http://creativecommons.org/ns#"
   xmlns:rdf="http://www.w3.org/1999/02/22-rdf-syntax-ns#"
   xmlns:svg="http://www.w3.org/2000/svg"
   xmlns="http://www.w3.org/2000/svg"
   xmlns:xlink="http://www.w3.org/1999/xlink"
   xmlns:sodipodi="http://sodipodi.sourceforge.net/DTD/sodipodi-0.dtd"
   xmlns:inkscape="http://www.inkscape.org/namespaces/inkscape"
   width="210mm"
   height="297mm"
   viewBox="0 0 210 297"
   version="1.1"
   id="svg8"
   inkscape:version="0.92.0 r15299"
   sodipodi:docname="mammoose.svg">
  <defs
     id="defs2" />
  <sodipodi:namedview
     id="base"
     pagecolor="#ffffff"
     bordercolor="#666666"
     borderopacity="1.0"
     inkscape:pageopacity="0.0"
     inkscape:pageshadow="2"
     inkscape:zoom="1.979899"
     inkscape:cx="342.57234"
     inkscape:cy="429.27375"
     inkscape:document-units="mm"
     inkscape:current-layer="layer2"
     showgrid="false"
     inkscape:window-width="1360"
     inkscape:window-height="705"
     inkscape:window-x="-8"
     inkscape:window-y="-8"
     inkscape:window-maximized="1"
     showguides="false" />
  <metadata
     id="metadata5">
    <rdf:RDF>
      <cc:Work
         rdf:about="">
        <dc:format>image/svg+xml</dc:format>
        <dc:type
           rdf:resource="http://purl.org/dc/dcmitype/StillImage" />
        <dc:title></dc:title>
      </cc:Work>
    </rdf:RDF>
  </metadata>
  <g
     inkscape:groupmode="layer"
     id="layer3"
     inkscape:label="Leg"
     style="display:inline">
    <path
       style="fill:#803300;stroke:#000000;stroke-width:0.99999994px;stroke-linecap:butt;stroke-linejoin:miter;stroke-opacity:1"
       d="M 259.90039 833.29492 C 253.78663 833.60576 247.85128 836.06752 243.27539 842.26172 C 228.63253 862.08315 236.66797 894.22656 236.66797 894.22656 L 240.06055 918.68945 C 240.09089 918.90822 240.13897 919.36613 240.16992 919.5918 C 241.48584 921.10407 241.67906 921.53029 241.74414 921.69531 C 241.81054 921.86367 241.79523 921.8114 242.85742 922.51953 C 243.21459 922.75764 243.54382 923.04241 243.92773 923.23438 C 244.02067 923.65199 244.27496 923.70637 244.55664 923.67383 C 244.83832 923.64128 245.1485 923.52206 245.35742 923.5918 C 245.60997 923.67608 245.83417 923.83016 246.07227 923.94922 C 251.307 926.56658 245.45106 923.71282 250 925.73438 C 250.48651 925.95056 250.91582 926.30295 251.42773 926.44922 C 251.68542 926.52292 253.5233 926.40008 253.57227 926.44922 C 253.65647 926.5335 253.48806 926.7204 253.57227 926.80469 C 253.65647 926.88897 253.80872 926.80469 253.92773 926.80469 L 254.28516 926.80469 L 259.28516 926.80469 L 271.78516 926.80469 L 278.57227 926.80469 L 279.28516 926.80469 C 279.40421 926.80469 279.53203 926.76047 279.64258 926.80469 C 280.1369 927.00236 280.56718 927.35115 281.07227 927.51953 C 281.29813 927.59474 281.54707 927.51953 281.78516 927.51953 C 281.90421 927.51953 282.03607 927.46624 282.14258 927.51953 C 282.44377 927.66996 282.55625 928.0838 282.85742 928.23438 C 282.96389 928.28767 283.13064 928.15009 283.21484 928.23438 C 283.29905 928.31866 283.21484 928.47274 283.21484 928.5918 L 283.21484 931.0918 C 283.21484 931.21085 283.17743 931.33621 283.21484 931.44922 C 283.29905 931.70169 283.4881 931.90956 283.57227 932.16211 C 283.65417 932.40778 283.46689 933.02367 283.57227 933.23438 C 283.94385 933.97754 283.93637 933.88223 283.92969 933.69336 C 283.92635 933.59892 283.92326 933.48159 283.9668 933.43359 C 284.01033 933.3856 284.10044 933.40705 284.28516 933.5918 C 284.4535 933.75999 284.11682 934.13635 284.28516 934.30469 C 284.36936 934.38897 284.55837 934.2204 284.64258 934.30469 C 284.72679 934.38897 284.64258 934.54305 284.64258 934.66211 C 284.76163 934.78116 284.85993 934.92618 285 935.01953 C 285.77992 935.53948 285.74988 935.49967 285.71875 935.39453 C 285.68762 935.28939 285.65458 935.11919 286.42773 935.37695 C 286.58746 935.43024 286.63458 935.65916 286.78516 935.73438 C 286.78516 935.73438 286.78516 935.73438 286.78516 935.73438 C 286.63458 935.65916 286.58746 935.43024 286.42773 935.37695 C 285.65458 935.11919 285.68762 935.28939 285.71875 935.39453 C 285.74988 935.49967 285.77992 935.53948 285 935.01953 C 284.85993 934.92618 284.76163 934.78116 284.64258 934.66211 C 284.64258 934.54305 284.72679 934.38897 284.64258 934.30469 C 284.55837 934.2204 284.36936 934.38897 284.28516 934.30469 C 284.11682 934.13635 284.4535 933.75999 284.28516 933.5918 C 284.10044 933.40705 284.01033 933.3856 283.9668 933.43359 C 283.92326 933.48159 283.92635 933.59892 283.92969 933.69336 C 283.93637 933.88223 283.94385 933.97754 283.57227 933.23438 C 283.46689 933.02367 283.65417 932.40778 283.57227 932.16211 C 283.4881 931.90956 283.29905 931.70169 283.21484 931.44922 C 283.17743 931.33621 283.21484 931.21085 283.21484 931.0918 L 283.21484 928.5918 C 283.21484 928.47274 283.29905 928.31866 283.21484 928.23438 C 283.13064 928.15009 282.96389 928.28767 282.85742 928.23438 C 282.55625 928.0838 282.44377 927.66996 282.14258 927.51953 C 282.03607 927.46624 281.90421 927.51953 281.78516 927.51953 C 281.54707 927.51953 281.29813 927.59474 281.07227 927.51953 C 280.56718 927.35115 280.1369 927.00236 279.64258 926.80469 C 279.53203 926.76047 279.40421 926.80469 279.28516 926.80469 L 278.57227 926.80469 L 271.78516 926.80469 L 259.28516 926.80469 L 254.28516 926.80469 L 253.92773 926.80469 C 253.80872 926.80469 253.65647 926.88897 253.57227 926.80469 C 253.48806 926.7204 253.65647 926.5335 253.57227 926.44922 C 253.5233 926.40008 251.68542 926.52292 251.42773 926.44922 C 250.91582 926.30295 250.48651 925.95056 250 925.73438 C 245.45106 923.71282 251.307 926.56658 246.07227 923.94922 C 245.83417 923.83016 245.60997 923.67608 245.35742 923.5918 C 245.1485 923.52206 244.83832 923.64128 244.55664 923.67383 C 244.27496 923.70637 244.02067 923.65199 243.92773 923.23438 C 243.54382 923.04241 243.21459 922.75764 242.85742 922.51953 C 241.79523 921.8114 241.81054 921.86367 241.74414 921.69531 C 241.67906 921.53029 241.48584 921.10407 240.16992 919.5918 C 242.79362 938.72021 247.56055 981.99609 247.56055 981.99609 L 293.27539 981.99609 L 293.27539 968.42383 L 283.63281 914.04688 L 293.57227 867.87695 C 293.57227 867.87695 293.98828 850.47569 290.23828 845.6543 C 287.66015 842.33956 273.35066 832.61107 259.90039 833.29492 z "
       id="path4487"
       transform="scale(0.26458333)" />
    <path
       style="opacity:1;fill:#000080;fill-opacity:1;stroke:none;stroke-width:0.62767154;stroke-miterlimit:4;stroke-dasharray:none;stroke-opacity:1"
       d="m 285.81452,934.58009 c -0.34375,-0.0765 -0.625,-0.27647 -0.625,-0.44447 0,-0.16799 -0.2633,-0.56874 -0.58511,-0.89055 -0.38236,-0.38236 -0.6456,-1.4306 -0.75969,-3.02517 -0.19133,-2.67408 -0.25669,-2.74826 -3.11948,-3.54025 -0.89479,-0.24755 -6.56623,-0.4353 -15.17858,-0.50247 l -13.75,-0.10725 -3.16056,-1.50253 c -1.7383,-0.82639 -3.31379,-1.50253 -3.50109,-1.50253 -0.58189,0 -2.73627,-1.60502 -3.55998,-2.65219 -0.67603,-0.85943 -1.04576,-2.83861 -2.6643,-14.26214 -1.03364,-7.29533 -2.12491,-14.58654 -2.42504,-16.20269 -0.98179,-5.28669 -1.39743,-11.67389 -1.19863,-18.41944 0.18777,-6.37135 0.42059,-8.34403 1.5574,-13.19568 l 0.56486,-2.41071 h 27.43746 c 25.82395,0 27.44809,0.0367 27.61825,0.625 0.0994,0.34375 0.28534,2.875 0.41311,5.625 l 0.23232,5 -5.04941,23.39285 -5.04942,23.39286 1.81983,10.31078 c 1.0009,5.67094 1.77218,10.34225 1.71394,10.38069 -0.0582,0.0385 -0.38713,0.007 -0.73088,-0.0691 z"
       id="path4566"
       inkscape:connector-curvature="0"
       transform="scale(0.26458333)" />
    <path
       style="fill:none;stroke:#000000;stroke-width:0.26458332px;stroke-linecap:butt;stroke-linejoin:miter;stroke-opacity:1"
       d="m 69.723938,250.06078 c -0.07066,0.14964 0.09772,0.12863 0.133633,0.20046 0.005,0.01 -0.005,0.0234 0,0.0334 0.01408,0.0282 0.04935,0.0406 0.06682,0.0668 0.01381,0.0207 0.01961,0.0461 0.03341,0.0668 0.02963,0.0445 0.102312,0.0689 0.133636,0.10023 0.02839,0.0284 0.03842,0.0718 0.06681,0.10022 0.20251,0.20251 0.128749,0.0571 0.300681,0.26727 0.06066,0.0742 0.11136,0.15591 0.167042,0.23386 0.06682,0.078 0.134723,0.15499 0.200451,0.23387 0.04565,0.0548 0.08593,0.11404 0.133635,0.16704 0.05268,0.0585 0.111364,0.11136 0.167045,0.16704 0.03341,0.0334 0.07071,0.0633 0.100224,0.10023 0.02713,0.0339 0.02424,0.0789 0.06682,0.10022 0.0099,0.005 0.02299,-0.004 0.03341,0 0.168458,0.0632 0.334087,0.13364 0.501132,0.20046"
       id="path4628"
       inkscape:connector-curvature="0" />
    <path
       style="fill:#000000;stroke:#000000;stroke-width:0.26458332px;stroke-linecap:butt;stroke-linejoin:miter;stroke-opacity:1"
       d="m 68.487816,251.53077 c 0,0.0557 -0.0092,0.11212 0,0.16704 0.01333,0.08 0.04264,0.15648 0.06682,0.23386 0.163226,0.52233 0.02956,0.0902 0.200451,0.53454 0.08578,0.25735 0.04066,0.13506 0.133635,0.3675 0.02228,0.0557 0.03706,0.11497 0.06682,0.16704 0.01564,0.0273 0.05273,0.0386 0.06682,0.0668 0.02053,0.0411 0.01889,0.0901 0.03341,0.13363 0.01897,0.0569 0.04576,0.11089 0.06682,0.16705 0.01236,0.033 0.01953,0.0679 0.03341,0.10022 0.01963,0.0458 0.0472,0.0879 0.06682,0.13364 0.01386,0.0324 0.01765,0.0687 0.03341,0.10022 0.01797,0.0359 0.04273,0.0681 0.06682,0.10023 0.03949,0.0527 0.06682,0.0491 0.06682,0.13364"
       id="path4630"
       inkscape:connector-curvature="0" />
    <use
       id="use4632"
       inkscape:spray-origin="#path4630"
       xlink:href="#path4630"
       x="0"
       y="0"
       width="100%"
       height="100%"
       transform="translate(-0.14455358,-2.6358177)" />
    <use
       id="use4634"
       inkscape:spray-origin="#path4630"
       xlink:href="#path4630"
       x="0"
       y="0"
       width="100%"
       height="100%"
       transform="translate(-0.44830151,-2.2639124)" />
    <use
       id="use4636"
       inkscape:spray-origin="#path4630"
       xlink:href="#path4630"
       x="0"
       y="0"
       width="100%"
       height="100%"
       transform="translate(-0.27880083,-1.3977393)" />
    <use
       id="use4638"
       inkscape:spray-origin="#path4630"
       xlink:href="#path4630"
       x="0"
       y="0"
       width="100%"
       height="100%"
       transform="translate(0.5296452,0.535622)" />
    <use
       id="use4640"
       inkscape:spray-origin="#path4630"
       xlink:href="#path4630"
       x="0"
       y="0"
       width="100%"
       height="100%"
       transform="translate(1.8722567,-0.3160492)" />
    <use
       id="use4642"
       inkscape:spray-origin="#path4630"
       xlink:href="#path4630"
       x="0"
       y="0"
       width="100%"
       height="100%"
       transform="translate(0.20229682,0.30143456)" />
    <use
       id="use4644"
       inkscape:spray-origin="#path4630"
       xlink:href="#path4630"
       x="0"
       y="0"
       width="100%"
       height="100%"
       transform="translate(1.1099289,0.18740063)" />
    <use
       id="use4646"
       inkscape:spray-origin="#path4630"
       xlink:href="#path4630"
       x="0"
       y="0"
       width="100%"
       height="100%"
       transform="translate(1.067848,0.95189497)" />
    <use
       id="use4648"
       inkscape:spray-origin="#path4630"
       xlink:href="#path4630"
       x="0"
       y="0"
       width="100%"
       height="100%"
       transform="translate(0.9130089,1.3071921)" />
    <use
       id="use4650"
       inkscape:spray-origin="#path4630"
       xlink:href="#path4630"
       x="0"
       y="0"
       width="100%"
       height="100%"
       transform="translate(0.37290698,1.3666632)" />
    <use
       id="use4652"
       inkscape:spray-origin="#path4630"
       xlink:href="#path4630"
       x="0"
       y="0"
       width="100%"
       height="100%"
       transform="translate(0.93856474,0.56842044)" />
    <use
       id="use4654"
       inkscape:spray-origin="#path4630"
       xlink:href="#path4630"
       x="0"
       y="0"
       width="100%"
       height="100%"
       transform="translate(1.5533541,0.33855687)" />
    <use
       id="use4656"
       inkscape:spray-origin="#path4630"
       xlink:href="#path4630"
       x="0"
       y="0"
       width="100%"
       height="100%"
       transform="translate(2.7782361,-0.15292726)" />
    <use
       id="use4658"
       inkscape:spray-origin="#path4630"
       xlink:href="#path4630"
       x="0"
       y="0"
       width="100%"
       height="100%"
       transform="translate(2.5655603,1.2166147)" />
    <use
       id="use4660"
       inkscape:spray-origin="#path4630"
       xlink:href="#path4630"
       x="0"
       y="0"
       width="100%"
       height="100%"
       transform="translate(3.7770489,-0.28693349)" />
    <use
       id="use4662"
       inkscape:spray-origin="#path4630"
       xlink:href="#path4630"
       x="0"
       y="0"
       width="100%"
       height="100%"
       transform="translate(3.9494422,-0.39815123)" />
    <use
       id="use4664"
       inkscape:spray-origin="#path4630"
       xlink:href="#path4630"
       x="0"
       y="0"
       width="100%"
       height="100%"
       transform="translate(2.6588961,1.3720939)" />
    <use
       id="use4666"
       inkscape:spray-origin="#path4630"
       xlink:href="#path4630"
       x="0"
       y="0"
       width="100%"
       height="100%"
       transform="translate(3.5463267,1.1951052)" />
    <use
       id="use4668"
       inkscape:spray-origin="#path4630"
       xlink:href="#path4630"
       x="0"
       y="0"
       width="100%"
       height="100%"
       transform="translate(3.6578255,1.3392495)" />
    <use
       id="use4670"
       inkscape:spray-origin="#path4630"
       xlink:href="#path4630"
       x="0"
       y="0"
       width="100%"
       height="100%"
       transform="translate(3.4418446,0.38990642)" />
    <use
       id="use4672"
       inkscape:spray-origin="#path4630"
       xlink:href="#path4630"
       x="0"
       y="0"
       width="100%"
       height="100%"
       transform="translate(2.921471,2.3117978)" />
    <use
       id="use4674"
       inkscape:spray-origin="#path4630"
       xlink:href="#path4630"
       x="0"
       y="0"
       width="100%"
       height="100%"
       transform="translate(4.0511752,2.1228875)" />
    <use
       id="use4676"
       inkscape:spray-origin="#path4630"
       xlink:href="#path4630"
       x="0"
       y="0"
       width="100%"
       height="100%"
       transform="translate(2.1472129,2.4117524)" />
    <use
       id="use4678"
       inkscape:spray-origin="#path4630"
       xlink:href="#path4630"
       x="0"
       y="0"
       width="100%"
       height="100%"
       transform="translate(2.2325535,2.4296549)" />
    <use
       id="use4680"
       inkscape:spray-origin="#path4630"
       xlink:href="#path4630"
       x="0"
       y="0"
       width="100%"
       height="100%"
       transform="translate(1.2524237,1.0723638)" />
  </g>
  <g
     inkscape:label="Torso"
     inkscape:groupmode="layer"
     id="layer1"
     style="display:inline">
    <path
       style="fill:#00ff00;stroke:#000000;stroke-width:0.99999994px;stroke-linecap:butt;stroke-linejoin:miter;stroke-opacity:1"
       d="m 278.62891,656.73828 c -29.65711,-0.29015 -52.92547,26.06566 -60.77149,39.71094 -8.21429,14.28571 -27.3487,77.80186 -16.07226,118.92773 12.14285,44.28571 33.57226,40 33.57226,40 h 58.21485 c 0,0 -0.72756,-3.32894 -1.64258,-8.6289 -0.47876,6.3e-4 -0.39308,0.0207 -0.24805,0 0.0737,-0.0105 0.15797,-0.0309 0.18164,-0.0703 0.0237,-0.0394 -0.0133,-0.0974 -0.18164,-0.18164 -0.075,-0.0375 -0.1659,-0.009 -0.25195,0 0,-0.0843 -0.1697,0 -0.25391,0 h -1.51367 c -0.0612,0 -0.74988,-0.008 -0.75781,0 -0.0595,0.0593 0.0595,0.19262 0,0.25196 -0.11905,0.11905 -0.35529,-0.0752 -0.50586,0 -0.10647,0.0533 -0.14549,0.19866 -0.25196,0.25195 -0.0753,0.0378 -0.19246,-0.0593 -0.25195,0 -0.0595,0.0593 0.0595,0.19457 0,0.25391 -0.0595,0.0593 -0.19442,-0.0593 -0.25391,0 -0.0595,0.0593 0.0753,0.21415 0,0.25195 -0.15059,0.0752 -0.34418,-0.0533 -0.5039,0 -0.11293,0.0378 -0.15481,0.18581 -0.25391,0.25195 -0.46985,0.31325 -1.02338,0.47775 -1.51367,0.75781 -0.26352,0.15054 -0.48633,0.37018 -0.75781,0.50586 -0.2381,0.11906 -0.51067,0.15293 -0.75781,0.25196 -0.17479,0.0699 -0.32728,0.19261 -0.50586,0.25195 -0.0799,0.0265 -0.19247,-0.0593 -0.25196,0 -0.0595,0.0593 0.0595,0.19262 0,0.25195 -0.11905,0.11906 -0.35528,-0.0752 -0.50586,0 -0.10647,0.0533 -0.13902,0.21611 -0.25195,0.25391 -0.15971,0.0533 -0.34614,-0.0533 -0.50586,0 -0.22589,0.0753 -0.30578,0.372 -0.50391,0.50391 -0.15659,0.10431 -0.34923,0.14959 -0.50585,0.2539 -0.57791,0.38529 0.15771,0.19852 -0.75782,0.50391 -0.0799,0.0265 -0.17666,-0.0378 -0.25195,0 -0.10647,0.0533 -0.14548,0.19866 -0.25195,0.25195 -0.0664,0.034 -0.87967,0 -1.01172,0 h -1.26172 -0.50586 c -0.0842,0 -0.17666,0.0378 -0.25195,0 -0.10647,-0.0533 -0.16775,-0.16767 -0.25196,-0.25195 -0.33672,-0.0843 -0.67304,-0.16767 -1.00976,-0.25195 -0.33672,-0.0839 -0.67799,-0.15671 -1.01172,-0.25196 -0.25596,-0.0729 -0.49797,-0.19608 -0.75781,-0.2539 -0.49985,-0.11112 -1.02322,-0.10493 -1.51367,-0.25196 -0.36059,-0.10817 -0.66571,-0.35575 -1.01172,-0.5039 -0.24468,-0.1047 -0.50872,-0.15489 -0.75586,-0.25391 -0.17475,-0.0699 -0.32728,-0.19261 -0.50586,-0.25195 -0.0799,-0.0265 -0.17667,0.0378 -0.25196,0 -0.10646,-0.0533 -0.14743,-0.19866 -0.2539,-0.25196 -0.0769,-0.0385 -0.64409,0 -0.75781,0 h -1.76758 c -0.086,0 -0.8731,0.0457 -1.00977,0 -0.17857,-0.0593 -0.32128,-0.20817 -0.5039,-0.2539 -0.16333,-0.0408 -0.33752,0 -0.50586,0 -0.25254,0 -0.5078,0.034 -0.75782,0 -0.34359,-0.0491 -0.66828,-0.18997 -1.00976,-0.25196 -0.58564,-0.1062 -1.18555,-0.12722 -1.76758,-0.25195 -0.59923,-0.12828 -1.16665,-0.38567 -1.76758,-0.50586 -0.6655,-0.13304 -1.34962,-0.15595 -2.02148,-0.25195 -0.5069,-0.0722 -1.00612,-0.20093 -1.51563,-0.25195 -0.5627,-0.0563 -1.19267,0 -1.76758,0 -0.11374,0 -0.68089,-0.0385 -0.75781,0 -0.10647,0.0533 -0.14548,0.19866 -0.25195,0.25195 -0.15059,0.0752 -0.35333,-0.0752 -0.50391,0 -0.21296,0.10647 -0.29288,0.39928 -0.50586,0.50586 -0.15059,0.0752 -0.3868,-0.11906 -0.50586,0 -0.0595,0.0593 0.0595,0.19261 0,0.25195 -0.0595,0.0593 -0.17666,-0.0378 -0.25195,0 -0.21296,0.10647 -0.27999,0.4287 -0.50586,0.50391 -0.15971,0.0533 -0.34418,-0.0533 -0.50391,0 -0.22587,0.0753 -0.29292,0.39927 -0.50585,0.50586 -0.0753,0.0378 -0.17667,-0.0378 -0.25196,0 -0.1065,0.0533 -0.16774,0.16767 -0.25195,0.25195 -0.0842,0.0839 -0.20069,0.14732 -0.25391,0.25391 -0.0374,0.0752 0.0595,0.19261 0,0.25195 -0.0595,0.0593 -0.17666,-0.0378 -0.25195,0 -0.10643,0.0533 -0.14548,0.19866 -0.25195,0.25195 -0.0769,0.0385 -0.64409,0 -0.75782,0 -0.44392,0 -1.12048,0.0658 -1.51562,0 -1.08576,-0.1809 -0.80426,-0.24081 -0.64453,-0.28906 0.15973,-0.0483 0.19847,-0.0837 -1.375,-0.21484 -0.58722,-0.0488 -1.17832,0 -1.76758,0 h -3.78906 -3.03125 -0.50391 c -0.16836,0 -0.35528,0.0752 -0.50586,0 -0.0753,-0.0378 0.0595,-0.19457 0,-0.25391 -0.11905,-0.11905 -0.38485,0.11906 -0.5039,0 -0.0595,-0.0593 0.0378,-0.17674 0,-0.25195 -0.26274,-0.52547 -0.25864,-0.45779 -0.25391,-0.32422 0.005,0.13356 0.009,0.33352 -0.25195,0.0723 -0.0595,-0.0593 0.0595,-0.19261 0,-0.25195 -0.1331,-0.13304 -0.35529,-0.1409 -0.50586,-0.25391 -0.24847,-0.18636 -1.40467,-1.37918 -1.51368,-1.51562 -0.11758,-0.14714 -0.14097,-0.35348 -0.2539,-0.50391 -0.28571,-0.38093 -0.76478,-0.60142 -1.00977,-1.00976 -0.20369,-0.33952 -0.1905,-1.01172 -0.5039,-1.01172 -0.0842,0 0,0.16962 0,0.25391 v 0.5039 V 847 c 0,0.0843 0.0595,0.19457 0,0.25391 -0.16838,0.16837 -0.23287,0.0631 -0.25391,0 -0.021,-0.0632 0,-0.0848 0,0.25195 0,0.0612 0.008,0.75025 0,0.75781 -0.0595,0.0593 -0.19246,-0.0593 -0.25195,0 -0.11906,0.11906 0.11905,0.38485 0,0.50391 -0.0595,0.0593 -0.19247,-0.0593 -0.25196,0 -0.26126,0.26199 -0.0632,0.25686 0.0703,0.25195 0.13355,-0.005 0.20128,-0.009 -0.32422,0.25391 -0.0753,0.0378 -0.19247,-0.0593 -0.25195,0 -0.11906,0.11905 0.11905,0.3868 0,0.50586 -0.0595,0.0593 -0.17667,-0.0378 -0.25196,0 -0.21296,0.10647 -0.29288,0.39732 -0.50586,0.5039 -0.1506,0.0752 -0.38485,-0.11905 -0.5039,0 -0.0595,0.0593 0.0595,0.19262 0,0.25196 -0.0102,0.0113 -0.91901,0 -1.01172,0 l -3.48214,0.98214 c 0.0927,0 4.4837,-0.97081 4.49386,-0.98214 0.0595,-0.0593 -0.0595,-0.19262 0,-0.25196 0.11905,-0.11905 0.3533,0.0752 0.5039,0 0.21298,-0.10658 0.2929,-0.39743 0.50586,-0.5039 0.0753,-0.0378 0.19247,0.0593 0.25196,0 0.11905,-0.11906 -0.11906,-0.38681 0,-0.50586 0.0595,-0.0593 0.17666,0.0378 0.25195,0 0.5255,-0.26276 0.45777,-0.25882 0.32422,-0.25391 -0.13356,0.005 -0.33158,0.01 -0.0703,-0.25195 0.0595,-0.0593 0.19243,0.0593 0.25196,0 0.11905,-0.11906 -0.11906,-0.38485 0,-0.50391 0.0595,-0.0593 0.19242,0.0593 0.25195,0 0.008,-0.008 0,-0.69658 0,-0.75781 0,-0.33672 -0.021,-0.31511 0,-0.25195 0.021,0.0631 0.0855,0.16837 0.25391,0 0.0595,-0.0593 0,-0.16963 0,-0.25391 v -1.76758 -0.5039 c 0,-0.0843 -0.0842,-0.25391 0,-0.25391 0.3134,0 0.30021,0.6722 0.5039,1.01172 0.24499,0.40834 0.72406,0.62883 1.00977,1.00976 0.11293,0.15043 0.13632,0.35677 0.2539,0.50391 0.10901,0.13644 1.26521,1.32926 1.51368,1.51562 0.15057,0.11301 0.37276,0.12087 0.50586,0.25391 0.0595,0.0593 -0.0595,0.19262 0,0.25195 0.26125,0.26126 0.25668,0.0613 0.25195,-0.0723 -0.005,-0.13357 -0.009,-0.20125 0.25391,0.32422 0.0378,0.0752 -0.0595,0.19261 0,0.25195 0.11905,0.11906 0.38485,-0.11905 0.5039,0 0.0595,0.0593 -0.0753,0.21611 0,0.25391 0.15058,0.0752 0.3375,0 0.50586,0 h 0.50391 3.03125 3.78906 c 0.58926,0 1.18036,-0.0488 1.76758,0 1.57347,0.13115 1.53473,0.16659 1.375,0.21484 -0.15973,0.0482 -0.44123,0.10816 0.64453,0.28906 0.39514,0.0658 1.0717,0 1.51562,0 0.11373,0 0.68096,0.0385 0.75782,0 0.10647,-0.0533 0.14552,-0.19866 0.25195,-0.25195 0.0753,-0.0378 0.19243,0.0593 0.25195,0 0.0595,-0.0593 -0.0374,-0.17674 0,-0.25195 0.0532,-0.10659 0.1697,-0.17 0.25391,-0.25391 0.0842,-0.0843 0.14545,-0.19866 0.25195,-0.25195 0.0753,-0.0378 0.17663,0.0378 0.25196,0 0.21293,-0.10659 0.27998,-0.43054 0.50585,-0.50586 0.15973,-0.0533 0.3442,0.0533 0.50391,0 0.22587,-0.0752 0.2929,-0.39744 0.50586,-0.50391 0.0753,-0.0378 0.19243,0.0593 0.25195,0 0.0595,-0.0593 -0.0595,-0.19261 0,-0.25195 0.11906,-0.11906 0.35527,0.0752 0.50586,0 0.21298,-0.10658 0.2929,-0.39939 0.50586,-0.50586 0.15058,-0.0752 0.35332,0.0752 0.50391,0 0.10647,-0.0533 0.14548,-0.19866 0.25195,-0.25195 0.0769,-0.0385 0.64407,0 0.75781,0 0.57491,0 1.20488,-0.0563 1.76758,0 0.50951,0.051 1.00873,0.17976 1.51563,0.25195 0.67186,0.096 1.35598,0.11891 2.02148,0.25195 0.60093,0.12019 1.16835,0.37758 1.76758,0.50586 0.58203,0.12473 1.18194,0.14575 1.76758,0.25195 0.34148,0.062 0.66617,0.20282 1.00976,0.25196 0.25002,0.034 0.50528,0 0.75782,0 0.16834,0 0.34253,-0.0408 0.50586,0 0.18262,0.0457 0.32533,0.19457 0.5039,0.2539 0.13667,0.0457 0.92374,0 1.00977,0 h 1.76758 c 0.11372,0 0.68096,-0.0385 0.75781,0 0.10647,0.0533 0.14744,0.19867 0.2539,0.25196 0.0753,0.0378 0.1721,-0.0265 0.25196,0 0.17858,0.0593 0.33111,0.18203 0.50586,0.25195 0.24714,0.099 0.51118,0.14921 0.75586,0.25391 0.34601,0.14815 0.65113,0.39573 1.01172,0.5039 0.49045,0.14703 1.01382,0.14084 1.51367,0.25196 0.25984,0.0578 0.50185,0.18096 0.75781,0.2539 0.33373,0.0953 0.675,0.16805 1.01172,0.25196 0.33672,0.0843 0.67304,0.16767 1.00976,0.25195 0.0842,0.0843 0.14549,0.19866 0.25196,0.25195 0.0753,0.0378 0.16778,0 0.25195,0 h 0.50586 1.26172 c 0.13205,0 0.94531,0.034 1.01172,0 0.10647,-0.0533 0.14548,-0.19866 0.25195,-0.25195 0.0753,-0.0378 0.17209,0.0265 0.25195,0 0.91553,-0.30539 0.17991,-0.11862 0.75782,-0.50391 0.15662,-0.10431 0.34926,-0.14959 0.50585,-0.2539 0.19813,-0.13191 0.27802,-0.42862 0.50391,-0.50391 0.15972,-0.0533 0.34615,0.0533 0.50586,0 0.11293,-0.0378 0.14548,-0.20061 0.25195,-0.25391 0.15058,-0.0752 0.38681,0.11906 0.50586,0 0.0595,-0.0593 -0.0595,-0.19261 0,-0.25195 0.0595,-0.0593 0.17209,0.0265 0.25196,0 0.17858,-0.0593 0.33107,-0.18203 0.50586,-0.25195 0.24714,-0.099 0.51971,-0.1329 0.75781,-0.25196 0.27148,-0.13568 0.49429,-0.35532 0.75781,-0.50586 0.49029,-0.28006 1.04382,-0.44456 1.51367,-0.75781 0.0991,-0.0661 0.14098,-0.21416 0.25391,-0.25195 0.15972,-0.0533 0.35331,0.0752 0.5039,0 0.0753,-0.0378 -0.0595,-0.19262 0,-0.25195 0.0595,-0.0593 0.19438,0.0593 0.25391,0 0.0595,-0.0593 -0.0595,-0.19457 0,-0.25391 0.0595,-0.0593 0.17667,0.0378 0.25195,0 0.10647,-0.0533 0.14549,-0.19866 0.25196,-0.25195 0.15057,-0.0752 0.38681,0.11905 0.50586,0 0.0595,-0.0593 -0.0595,-0.19262 0,-0.25196 0.008,-0.008 0.69657,0 0.75781,0 h 1.51367 c 0.0842,0 0.25391,-0.0843 0.25391,0 0.0861,-0.009 0.17694,-0.0375 0.25195,0 0.16836,0.0842 0.20532,0.14219 0.18164,0.18164 -0.0237,0.0395 -0.10798,0.0598 -0.18164,0.0703 -0.14503,0.0207 -0.23071,6.3e-4 0.24805,0 -2.8793,-16.6774 -5.46487,-53.30567 -1.21485,-91.3711 5.36295,-48.03341 26.42774,-93.92912 -6.07226,-98.21484 -2.03125,-0.26786 -4.03653,-0.40449 -6.01367,-0.42383 z"
       id="path4489"
       transform="scale(0.26458333)"
       inkscape:connector-curvature="0"
       sodipodi:nodetypes="ccscccccccssccccscscccccccscccccccccscscccccccccccssccsccccccsccccccccccccccccscscsccscccccccccccsscsccsccccccccccccccccccccccccccsccscsscccccccccccsccscscsccccccccccccccccsccccccsccsscccccccccccscscccccccccscccccccscsccccsscccccsccc" />
    <path
       style="opacity:1;fill:#aa4400;fill-opacity:1;stroke:none;stroke-width:0.15691788;stroke-miterlimit:4;stroke-dasharray:none;stroke-opacity:1"
       d="m 231.59732,854.76898 c -1.87307,-0.26884 -3.88139,-0.92766 -5.83637,-1.9146 -1.50281,-0.75867 -1.99221,-1.05827 -1.735,-1.06215 0.25047,-0.004 3.29791,-0.77669 3.74393,-0.94955 0.19643,-0.0761 0.45759,-0.23126 0.58036,-0.34473 0.12276,-0.11347 0.31352,-0.23359 0.42389,-0.26693 0.11038,-0.0333 0.22532,-0.15875 0.25542,-0.27867 0.0301,-0.11993 0.16077,-0.28121 0.29038,-0.35841 0.2863,-0.17051 0.59712,-0.8158 0.68425,-1.42057 0.0354,-0.24554 0.12805,-0.51911 0.20593,-0.60793 0.10196,-0.1163 0.13566,-0.31193 0.12038,-0.69886 -0.0164,-0.41515 0.005,-0.52255 0.093,-0.47224 0.24338,0.13874 0.44039,0.35205 0.5667,0.6136 0.23985,0.49665 2.67427,2.88231 3.19187,3.12793 0.25804,0.12244 0.97742,0.14334 5.52664,0.16056 4.77049,0.0181 5.24466,0.0331 5.3969,0.17088 0.26868,0.2432 0.88234,0.33548 2.24658,0.33781 1.20512,0.002 1.30069,-0.0107 1.65983,-0.22115 0.2096,-0.12283 0.42608,-0.32209 0.48108,-0.44279 0.055,-0.12071 0.26427,-0.30327 0.46506,-0.40571 0.20078,-0.10243 0.38749,-0.24469 0.41491,-0.31613 0.0294,-0.0768 0.16842,-0.1299 0.33975,-0.1299 0.19003,0 0.37807,-0.0817 0.54579,-0.23714 0.14073,-0.13042 0.46194,-0.33148 0.71381,-0.44678 0.25186,-0.11531 0.53051,-0.28985 0.61921,-0.38787 0.0887,-0.098 0.26555,-0.17949 0.39298,-0.18105 0.12743,-0.002 0.30969,-0.0618 0.40501,-0.13393 0.23355,-0.17664 2.2006,-0.17783 3.1202,-0.002 0.37141,0.0711 1.08812,0.1731 1.59268,0.22675 0.50456,0.0537 1.41961,0.23491 2.03345,0.40279 0.61384,0.16788 1.45759,0.34951 1.875,0.40362 0.41741,0.0541 0.98571,0.15623 1.26289,0.22693 0.27717,0.0707 0.7995,0.12998 1.16071,0.13172 0.40018,0.002 0.74396,0.053 0.87997,0.13077 0.17198,0.0983 0.62388,0.12833 1.96875,0.13076 0.96005,0.002 1.78371,0.0404 1.83036,0.0859 0.0466,0.0455 0.42634,0.20051 0.84375,0.34452 0.41741,0.144 1.00816,0.38767 1.31277,0.54148 0.37114,0.1874 0.83968,0.32565 1.42029,0.41907 0.47654,0.0767 0.9907,0.19097 1.14258,0.25395 0.15188,0.063 0.65784,0.20674 1.12436,0.31944 0.46652,0.1127 0.97349,0.28004 1.12661,0.37188 0.24551,0.14725 0.47589,0.16697 1.95051,0.16697 1.24296,0 1.73294,-0.0315 1.9091,-0.12259 0.13035,-0.0674 0.39638,-0.19146 0.59119,-0.27565 0.19481,-0.0842 0.40802,-0.22992 0.47381,-0.32384 0.0658,-0.0939 0.17749,-0.17078 0.24823,-0.17078 0.0707,0 0.27939,-0.13518 0.46368,-0.3004 0.1843,-0.16522 0.45562,-0.32262 0.60294,-0.34979 0.58027,-0.10701 0.9577,-0.23327 1.11042,-0.37148 0.0879,-0.0796 0.48404,-0.27935 0.88028,-0.44397 0.39623,-0.16461 0.83363,-0.37935 0.972,-0.47719 0.13837,-0.0978 0.62016,-0.36253 1.07064,-0.58821 0.45048,-0.22567 0.84459,-0.45163 0.87581,-0.50214 0.0312,-0.0505 0.17581,-0.0918 0.32133,-0.0918 0.18458,0 0.38174,-0.10799 0.65203,-0.35714 0.23219,-0.21402 0.47511,-0.35714 0.60617,-0.35714 0.1203,0 0.29661,-0.0712 0.39181,-0.15828 0.14957,-0.13677 0.29438,-0.15193 1.06594,-0.1116 0.49107,0.0257 0.9637,0.0887 1.0503,0.14016 0.12384,0.0736 0.25187,0.60702 0.59996,2.5 0.24338,1.32358 0.56435,3.00576 0.71325,3.73819 0.14891,0.73242 0.25907,1.34335 0.24482,1.3576 -0.0143,0.0143 -13.65024,0.0378 -30.30218,0.0522 -22.14494,0.0193 -30.46492,-7.5e-4 -30.97871,-0.0745 z"
       id="path4574"
       inkscape:connector-curvature="0"
       transform="scale(0.26458333)" />
    <path
       style="opacity:1;fill:#803300;fill-opacity:1;stroke:none;stroke-width:0.88766158;stroke-miterlimit:4;stroke-dasharray:none;stroke-opacity:1"
       d="m 228.30213,791.9217 c -4.58357,-3.47031 -8.40079,-6.49719 -8.48272,-6.72638 -0.0819,-0.22919 5.85715,-11.0851 13.19796,-24.12425 l 13.34692,-23.70754 3.66147,-24.96424 c 2.01381,-13.73032 3.81774,-25.13868 4.00874,-25.35189 0.3818,-0.4262 32.1908,0.81631 32.64985,1.27536 0.15666,0.15667 -2.78181,12.35192 -6.52995,27.10057 l -6.81479,26.81571 -18.09932,28.00869 c -9.95463,15.40478 -18.21297,28.00305 -18.35186,27.99616 -0.1389,-0.007 -4.00273,-2.85187 -8.5863,-6.32219 z"
       id="path4578"
       inkscape:connector-curvature="0"
       transform="scale(0.26458333)" />
    <path
       style="opacity:1;fill:#803300;fill-opacity:1;stroke:none;stroke-width:0.88766158;stroke-miterlimit:4;stroke-dasharray:none;stroke-opacity:1"
       d="m 228.30213,791.9217 c -4.58357,-3.47031 -8.40079,-6.49719 -8.48272,-6.72638 -0.0819,-0.22919 5.8567,-11.08431 13.19696,-24.12248 l 13.34592,-23.70577 3.72764,-25.21855 3.72763,-25.21854 7.82414,0.1634 c 10.81394,0.22583 24.72947,0.9162 25.05636,1.24309 0.14912,0.14913 -2.79552,12.33821 -6.54366,27.08686 l -6.81479,26.81571 -18.09932,28.00869 c -9.95463,15.40478 -18.21297,28.00305 -18.35186,27.99616 -0.1389,-0.007 -4.00273,-2.85187 -8.5863,-6.32219 z"
       id="path4580"
       inkscape:connector-curvature="0"
       transform="scale(0.26458333)" />
    <path
       style="opacity:1;fill:#803300;fill-opacity:1;stroke:none;stroke-width:0.88766158;stroke-miterlimit:4;stroke-dasharray:none;stroke-opacity:1"
       d="m 228.30213,791.9217 c -4.58357,-3.47031 -8.40079,-6.49719 -8.48272,-6.72638 -0.0819,-0.22919 5.8567,-11.08431 13.19696,-24.12248 l 13.34592,-23.70577 3.72714,-25.21855 3.72714,-25.21854 8.58225,0.17071 c 11.33707,0.2255 23.92013,0.85667 24.28142,1.21796 0.15892,0.15893 -2.7777,12.35603 -6.52584,27.10468 l -6.81479,26.81571 -18.09932,28.00869 c -9.95463,15.40478 -18.21297,28.00305 -18.35186,27.99616 -0.1389,-0.007 -4.00273,-2.85187 -8.5863,-6.32219 z"
       id="path4582"
       inkscape:connector-curvature="0"
       transform="scale(0.26458333)" />
  </g>
  <g
     inkscape:groupmode="layer"
     id="layer4"
     inkscape:label="Head"
     style="display:inline">
    <path
       style="fill:#803300;stroke:#000000;stroke-width:0.26458332px;stroke-linecap:butt;stroke-linejoin:miter;stroke-opacity:1"
       d="m 78.911327,175.59281 c 0,0 -0.08675,-1.46713 0.601356,-8.4858 0.668173,-6.81538 2.004521,-11.35896 -8.953528,-12.02713 -9.36563,-0.57108 -15.164408,3.12624 -18.307964,8.41899 -3.244601,5.46288 -4.677215,43.56493 -4.677215,43.56493 l 4.543582,0.53454 c 0,0 3.207234,-23.38609 6.949006,-33.27505 3.739683,-9.88344 4.827065,-2.93997 4.827065,-2.93997 1.101425,2.39353 0.518327,5.61266 0.518327,5.61266"
       id="path4530"
       inkscape:connector-curvature="0"
       sodipodi:nodetypes="csssccssc" />
    <path
       style="fill:none;stroke:#000000;stroke-width:0.26458332px;stroke-linecap:butt;stroke-linejoin:miter;stroke-opacity:1"
       d="m 69.358631,251.26488 0.188986,1.6064"
       id="path4620"
       inkscape:connector-curvature="0" />
    <circle
       id="path4622"
       style="fill:#000000;stroke:none"
       cx="73.232887"
       cy="254.95015"
       r="1.5" />
    <path
       style="fill:none;stroke:#000000;stroke-width:0.26458332px;stroke-linecap:butt;stroke-linejoin:miter;stroke-opacity:1"
       d="m 69.358631,251.26488 c -0.07869,0.0107 -0.185706,-0.0294 -0.236051,0.032 -0.0353,0.0431 0.07719,0.0829 0.100227,0.13363 0.03355,0.0738 0.04118,0.15695 0.06682,0.23386 0.01897,0.0569 0.04576,0.1109 0.06682,0.16705 0.02474,0.0659 0.04454,0.13363 0.06682,0.20045 0.01114,0.0334 0.02762,0.0655 0.03341,0.10023 0.0055,0.0329 -0.0066,0.0675 0,0.10022 0.0083,0.0417 0.08898,0.14456 0.100227,0.16704 0.08285,0.0315 0.01889,0.0901 0.03341,0.13364 0.0079,0.0236 0.02553,0.0432 0.03341,0.0668 0.02223,0.0667 -0.07008,0.25524 -0.07609,0.27143"
       id="path4624"
       inkscape:connector-curvature="0" />
    <path
       style="fill:none;stroke:#000000;stroke-width:0.26458332px;stroke-linecap:butt;stroke-linejoin:miter;stroke-opacity:1"
       d="m 71.828686,252.09872 c 0.112574,0.14147 0.106201,0.35033 0.200451,0.50113 0.02503,0.0401 0.07678,0.0592 0.100226,0.10022 0.02278,0.0399 0.01289,0.0926 0.03341,0.13364 0.01408,0.0282 0.04792,0.0416 0.06682,0.0668 0.01495,0.0199 0.0158,0.0492 0.03341,0.0668 0.02839,0.0284 0.07452,0.036 0.100227,0.0668 0.03188,0.0383 0.03787,0.0931 0.06682,0.13363 0.06756,0.0946 0.188725,0.15532 0.267269,0.23386 0.0615,0.0615 0.11271,0.13254 0.167045,0.20046 0.03478,0.0435 0.05745,0.098 0.100226,0.13363 0.02705,0.0225 0.07533,0.009 0.100225,0.0334 0.01574,0.0157 -0.0099,0.0469 0,0.0668 0.005,0.01 0.02553,-0.008 0.03341,0 0.0079,0.008 -0.0079,0.0255 0,0.0334 0.0079,0.008 0.02553,-0.008 0.03341,0 0.0079,0.008 -0.0079,0.0255 0,0.0334 0.04454,0.0445 0.03341,-0.0557 0.03341,0.0334"
       id="path4626"
       inkscape:connector-curvature="0" />
  </g>
  <g
     inkscape:groupmode="layer"
     id="layer7"
     inkscape:label="Face">
    <path
       style="fill:#ffe6d5;stroke:#000000;stroke-width:0.26458332px;stroke-linecap:butt;stroke-linejoin:miter;stroke-opacity:1"
       d="m 61.062979,158.37014 c 1.135896,0.0668 3.217776,-0.73299 3.217776,-0.73299 0,0 -1.504153,2.34508 -2.305955,2.07781 -0.801809,-0.26727 -0.781892,-0.48254 -0.781892,-0.48254 z"
       id="path4602"
       inkscape:connector-curvature="0"
       sodipodi:nodetypes="ccccc" />
    <path
       style="opacity:1;fill:#008080;fill-opacity:1;stroke:none;stroke-width:0.46499997;stroke-miterlimit:4;stroke-dasharray:none;stroke-opacity:1"
       id="path4606"
       d="m 61.957216,159.16593 c 7.94e-4,-0.0434 0.0019,-0.0867 0.0049,-0.13 0.01019,-0.097 0.02291,-0.19376 0.04154,-0.28955 0.01045,-0.0393 0.01471,-0.0803 0.027,-0.11914 0.01085,-0.0241 0.02835,-0.0442 0.04679,-0.0628 0.01323,-0.0144 0.03011,-0.024 0.04339,-0.0384 0.01558,-0.0172 0.02974,-0.0355 0.04616,-0.0519 0.05624,-0.0564 0.135596,-0.0902 0.201565,-0.1286 0.01807,-0.006 0.0349,-0.0148 0.05212,-0.0228 0.02622,-0.0105 0.04173,0.002 0.05632,0.0234 0.01026,0.0219 0.01378,0.0463 0.01863,0.0699 0.008,0.0315 0.01304,0.0635 0.01558,0.0958 0.0024,0.0402 0.0024,0.0806 0.0024,0.12088 0.0016,0.0485 -0.0068,0.0962 -0.01365,0.14397 -0.0062,0.0395 -0.01474,0.0786 -0.02331,0.11761 -0.0067,0.0354 -0.01378,0.0708 -0.02103,0.10606 -0.0047,0.0352 -0.01627,0.0685 -0.02923,0.10132 -0.01389,0.0337 -0.03263,0.065 -0.04897,0.0975 -0.01421,0.0289 -0.02732,0.0583 -0.04482,0.0854 -0.0087,0.0171 -0.02,0.0316 -0.03465,0.0439 -0.07752,0.0441 -0.128223,0.10612 -0.210527,0.0878 -0.01982,-0.0106 -0.03066,-0.0292 -0.04416,-0.0461 -0.01336,-0.02 -0.02111,-0.0438 -0.02871,-0.0666 -0.0067,-0.0256 -0.01177,-0.0515 -0.01543,-0.0778 -0.0059,-0.0247 -0.01185,-0.0494 -0.015,-0.0746 -0.0024,-0.0236 -0.0026,-0.0472 -0.0027,-0.0709 4e-5,-0.0251 -5.29e-4,-0.0501 0.0013,-0.0751 0.004,-0.0254 0.0056,-0.0512 0.01154,-0.0762 0.005,-0.0255 0.01699,-0.0483 0.0291,-0.071 0.01161,-0.0247 0.0254,-0.0481 0.03892,-0.0717 0.01058,-0.0219 0.02307,-0.0427 0.03419,-0.0643 0.01093,-0.0179 0.01773,-0.0376 0.02593,-0.0567 0.0077,-0.016 0.01667,-0.0314 0.0258,-0.0466 0.01066,-0.0142 0.01968,-0.0296 0.02916,-0.0446 0.01252,-0.0189 0.02455,-0.0371 0.03191,-0.0586 0.0066,-0.0204 0.01333,-0.0408 0.02259,-0.0602 0.03663,-0.0592 0.131964,-0.15784 0.187339,-0.10041 0.01183,0.0221 0.01175,0.0478 0.01262,0.0723 7.94e-4,0.0257 2.65e-4,0.0514 1.01e-4,0.0771 -5.29e-4,0.0295 -2.25e-4,0.0589 -1.01e-4,0.0884 1.11e-4,0.0246 1.48e-4,0.0492 1.7e-4,0.0738 1.6e-5,0.0236 1.3e-5,0.0472 1.3e-5,0.0708 -2.65e-4,0.0348 -0.006,0.0695 -0.01347,0.10344 -0.0088,0.0376 -0.01871,0.075 -0.02986,0.11199 -0.0069,0.0272 -0.01521,0.054 -0.02141,0.0814 -0.0047,0.0234 -0.0048,0.0474 -0.0088,0.0709 -0.0053,0.0281 -0.01045,0.0565 -0.02167,0.0829 -0.04166,0.0685 -0.135546,0.10145 -0.199832,0.13156 -0.0043,0.002 -0.0081,-0.005 -0.01209,-0.007 -0.0031,-0.005 -0.0071,-0.01 -0.0094,-0.0149 -0.01447,-0.0326 -0.0087,-0.0828 -0.006,-0.11768 0.0041,-0.0396 0.01069,-0.0789 0.01913,-0.11777 0.01093,-0.0564 0.02095,-0.11294 0.03051,-0.16957 0.006,-0.0363 0.0082,-0.073 0.01712,-0.10881 0.0055,-0.022 0.01741,-0.0414 0.02397,-0.0631 0.0034,-0.0173 9e-5,-0.0282 -0.01005,-0.0418 -0.01371,-0.0191 -0.01585,-0.042 -0.01786,-0.0647 -1.67e-4,-0.0791 0.02765,-0.0666 0.160274,-0.097 0.0092,-0.002 -1.85e-4,0.019 -5.29e-4,0.0285 -2.65e-4,0.0105 -7.94e-4,0.0209 -0.0011,0.0314 -0.0016,0.048 -0.006,0.0962 -0.01397,0.14364 -0.0056,0.0247 -0.01736,0.0472 -0.0313,0.0681 -0.01114,0.0167 -0.02643,0.0301 -0.0393,0.0454 -0.01302,0.0192 -0.01921,0.0411 -0.02307,0.0636 -0.0016,0.0243 -0.0054,0.0481 -0.01151,0.0718 -0.006,0.0301 -0.01614,0.0587 -0.02622,0.0876 -0.0087,0.0291 -0.02032,0.0569 -0.03459,0.0836 -0.0436,0.0598 -0.14038,0.15575 -0.198056,0.0915 -0.01373,-0.02 -0.01606,-0.0441 -0.01781,-0.0676 -0.0036,-0.0797 -0.01863,-0.0246 0.154991,-0.10011 0.0024,-0.001 -1.91e-4,0.005 -2.49e-4,0.007 -7.7e-5,0.003 -1.06e-4,0.006 -1.59e-4,0.009 -1.37e-4,0.0248 -5.29e-4,0.0496 -2.64e-4,0.0744 8.4e-5,0.0283 -8.5e-5,0.0566 1.5e-5,0.0848 -0.0021,0.0258 0.0081,0.0495 0.01479,0.0739 0.0054,0.0204 0.01947,0.0248 0.03845,0.0272 0.02469,0.002 0.0495,0.002 0.07424,0.001 0.03526,2.7e-4 0.05317,-0.0102 0.06236,0.0324 -7.94e-4,0.0323 -0.01857,0.0594 -0.03429,0.0864 -0.04032,0.0566 -0.113289,0.0766 -0.17345,0.10918 -0.0076,0.004 -0.02236,-0.002 -0.02902,-0.005 -0.02278,-0.0224 -0.02207,-0.0552 -0.02381,-0.085 -0.0011,-0.0336 -0.0013,-0.0673 -0.0016,-0.10089 -5.29e-4,-0.027 -5.29e-4,-0.0538 0.0056,-0.0802 0.02537,-0.0671 0.06452,-0.0631 0.165605,-0.10426 0.01027,-0.004 0.01357,0.0603 0.01371,0.0622 0.0033,0.0598 -5.3e-4,0.11995 -0.01482,0.17813 -0.008,0.0289 -0.01685,0.0571 -0.03826,0.0788 -0.129995,0.0751 -0.170611,0.14307 -0.187589,0.0191 -0.0035,-0.0301 -0.0032,-0.0605 -0.0033,-0.0907 0.0021,-0.0296 0.0069,-0.059 0.0095,-0.0885 0.0019,-0.0392 0.0044,-0.0782 0.0099,-0.11704 0.0084,-0.0454 0.02715,-0.0872 0.04532,-0.12916 0.01741,-0.0356 0.02785,-0.0736 0.03893,-0.11142 0.02148,-0.0734 0.120409,-0.17726 0.197937,-0.13227 0.02222,0.0137 0.0358,0.0338 0.04497,0.0577 0.0089,0.0271 0.0087,0.0557 0.0091,0.0839 2.64e-4,0.0289 5.29e-4,0.0577 1.95e-4,0.0866 7.94e-4,0.0262 -0.0016,0.0526 0.0011,0.0787 0.0031,0.0216 0.01042,0.0423 0.01662,0.0632 0.0071,0.0268 0.01453,0.0535 0.02347,0.0797 0.0078,0.0229 0.01855,0.0442 8.5e-5,0.0644 -0.03042,-0.0214 -0.126498,0.10887 -0.195686,0.0881 -0.0099,-0.003 -0.0113,-0.006 -0.01876,-0.0123 -0.01527,-0.0234 -0.0072,-0.0488 0.0039,-0.0719 0.04047,-0.0524 0.133284,-0.15508 0.183303,-0.0966 0.0071,0.008 0.0091,0.017 0.01265,0.0269 0.0079,0.0313 0.0089,0.0638 0.006,0.0958 -0.0029,0.0241 -0.01273,0.0437 -0.03031,0.06 -0.03771,0.0339 -0.162417,0.15539 -0.188055,0.0706 -5.29e-4,-0.0188 0.01093,-0.0356 0.02698,-0.045 0.05285,-0.0312 0.106159,-0.0616 0.159237,-0.0924 0.06475,-0.0362 -0.0835,0.0487 -0.125841,0.0721 -0.0045,0.002 0.0082,-0.006 0.01206,-0.009 0.01127,-0.01 0.0205,-0.0208 0.02964,-0.0324 0.01368,-0.021 0.02381,-0.044 0.03595,-0.066 0.01164,-0.0233 0.027,-0.0443 0.04161,-0.0658 0.0145,-0.0225 0.02904,-0.0448 0.04169,-0.0684 0.01199,-0.0177 0.01752,-0.0374 0.02029,-0.0584 0.0024,-0.0252 0.0021,-0.0506 0.0021,-0.0759 -2.64e-4,-0.0286 -7.4e-5,-0.0572 2.36e-4,-0.0858 1.72e-4,-0.0358 -1.27e-4,-0.0716 6.9e-5,-0.10735 -3.5e-5,-0.0311 -2.65e-4,-0.0622 -5.29e-4,-0.0932 2.11e-4,-0.0246 -0.0011,-0.0493 7.93e-4,-0.0738 0.0031,-0.0271 0.01064,-0.0533 0.01609,-0.0799 0.0028,-0.0167 0.0016,-0.008 0.0037,-0.0249 0,0 0.155879,-0.0771 0.155879,-0.0771 v 0 c -0.0019,0.0174 -7.94e-4,0.009 -0.0033,0.0261 -0.0049,0.0264 -0.01275,0.052 -0.01627,0.0786 -0.0041,0.0238 -7.94e-4,0.0481 -0.0021,0.0722 -1.93e-4,0.0313 -5.29e-4,0.0625 -5.29e-4,0.0938 1.98e-4,0.0357 -9.5e-5,0.0715 1.4e-4,0.10722 2.65e-4,0.0284 7.94e-4,0.0569 5.29e-4,0.0854 2.7e-5,0.0258 5.3e-4,0.0515 -7.93e-4,0.0773 -0.0019,0.0228 -0.0049,0.0455 -0.01733,0.0653 -0.01474,0.0226 -0.02633,0.0473 -0.04165,0.0696 -0.01453,0.021 -0.03038,0.0413 -0.04157,0.0644 -0.01349,0.0219 -0.02453,0.0448 -0.03602,0.0677 -0.0488,0.0742 -0.13081,0.10816 -0.21045,0.14815 0.04611,-0.0269 0.09223,-0.0538 0.138337,-0.0807 -0.0086,0.005 -0.01831,0.01 -0.02561,0.0169 -0.003,0.003 -0.0052,0.007 -0.0083,0.01 -3.1e-5,1.1e-4 -0.0021,0.004 5.3e-4,0.004 0.0024,1e-5 0.0071,-0.006 0.0051,-0.005 -0.133297,0.0774 -0.189039,0.11429 -0.134191,0.0782 0.01685,-0.0161 0.03116,-0.0243 0.03633,-0.0495 0.0044,-0.0296 0.0044,-0.0593 -0.0028,-0.0886 -0.0016,-0.005 -0.0016,-0.0126 -0.0066,-0.0144 -0.0011,-5.3e-4 -0.0038,0.003 -0.0028,0.002 0.252092,-0.14596 0.175212,-0.10557 0.125097,-0.0727 -0.01003,0.0129 -0.02212,0.0321 -0.0154,0.049 0.05199,0.0287 0.227303,-0.11619 -0.09664,0.0803 0.0011,-2e-4 0.01463,-0.002 0.0163,-0.004 0.0098,-0.009 -0.0039,-0.0305 -0.0054,-0.0393 -0.0093,-0.0262 -0.01582,-0.0534 -0.02363,-0.0801 -0.0074,-0.0215 -0.01482,-0.0433 -0.01855,-0.0658 -0.0038,-0.0268 -5.29e-4,-0.054 -0.0016,-0.081 -1.27e-4,-0.0288 5.3e-4,-0.0577 2.65e-4,-0.0865 -5.29e-4,-0.0261 -5.29e-4,-0.0527 -0.0072,-0.0782 -0.0068,-0.0192 -0.01773,-0.0362 -0.0374,-0.0441 -0.0602,0.008 -0.0037,10e-4 0.134694,-0.082 0.0031,-0.002 -0.0071,0.002 -0.01011,0.004 -0.01217,0.009 -0.01701,0.025 -0.02207,0.0382 -0.01156,0.0381 -0.02138,0.0769 -0.03792,0.11324 -0.01802,0.0413 -0.03989,0.0809 -0.04855,0.1257 -0.006,0.0382 -0.0079,0.0764 -0.0081,0.11493 -0.0024,0.0293 -0.0069,0.0582 -0.01045,0.0874 -1.59e-4,0.0296 -2.65e-4,0.0593 0.0021,0.0889 0.0016,0.0131 0.0024,0.0275 0.0078,0.0397 0.0037,0.008 0.007,0.003 0.0068,0.003 -0.04732,0.0279 -0.0948,0.0555 -0.142203,0.0833 0.02717,-0.0146 0.03601,-0.0419 0.04554,-0.0699 0.0186,-0.0552 0.02326,-0.11464 0.01797,-0.1725 -0.0088,-0.0739 0.0024,0.0138 -0.0057,-0.0379 -0.0087,-0.0564 0.09829,-0.0581 0.147775,-0.0865 0.0024,-0.001 -0.0046,0.003 -0.0065,0.005 -0.0024,0.002 -0.004,0.006 -0.006,0.008 -0.0093,0.0246 -0.009,0.05 -0.0084,0.076 -5.29e-4,0.0334 -0.0011,0.0669 2.57e-4,0.10039 0.0011,0.0192 -0.0021,0.0523 0.01492,0.0652 0.0114,2.6e-4 0.0245,-0.007 0.02085,-0.005 -0.262748,0.15575 -0.166773,0.10585 -0.122058,0.0696 0.01654,-0.0225 0.0321,-0.0481 0.03919,-0.0752 1.56e-4,-0.002 7.94e-4,-0.005 5.29e-4,-0.007 -0.0011,-0.007 -0.04168,-0.003 -0.049,-0.004 -0.02569,2e-5 -0.05172,0.001 -0.07708,-0.004 -0.02363,-0.007 -0.04112,-0.0191 -0.04804,-0.0439 -0.0066,-0.0258 -0.0185,-0.0508 -0.01656,-0.0781 1e-4,-0.0283 -6.4e-5,-0.0566 -1.4e-5,-0.0848 -3.1e-5,-0.0246 -2.64e-4,-0.0492 -7.93e-4,-0.0737 -8.2e-5,-0.003 -1.41e-4,-0.006 -2.49e-4,-0.009 -8.7e-5,-0.002 -0.0024,-0.006 -2.65e-4,-0.007 0.189871,-0.11164 0.153652,-0.13892 0.156427,-0.0599 0.0011,0.0189 0.0013,0.0397 0.01225,0.0559 0.0035,0.003 0.0045,0.005 0.0092,0.003 0.0016,-5.3e-4 0.006,-0.004 0.0044,-0.003 -0.271248,0.15934 -0.167222,0.10782 -0.123579,0.07 0.01693,-0.0243 0.0276,-0.0521 0.03686,-0.0801 0.0085,-0.029 0.02249,-0.0561 0.02574,-0.0866 0.0067,-0.0229 0.01193,-0.0461 0.0127,-0.07 0.0031,-0.0245 0.0078,-0.048 0.01889,-0.0703 0.0098,-0.0178 0.02537,-0.031 0.03958,-0.0453 0.0132,-0.0202 0.02751,-0.0397 0.03568,-0.0628 0.01106,-0.0465 0.01595,-0.0949 0.01842,-0.14252 1.51e-4,-0.0101 5.3e-4,-0.0202 5.3e-4,-0.0304 -9e-5,-0.008 -0.0075,-0.0196 -0.0011,-0.0246 0.208161,-0.16098 0.156898,-0.1396 0.147214,-0.0646 0.0013,0.0193 0.0024,0.0394 0.01416,0.0556 0.01254,0.017 0.0182,0.0343 0.01683,0.0557 -0.0048,0.023 -0.01566,0.0426 -0.0245,0.0641 -0.01212,0.0352 -0.01394,0.0724 -0.02119,0.10867 -0.01064,0.0563 -0.02061,0.11265 -0.02851,0.16938 -0.0088,0.0384 -0.01442,0.0773 -0.02061,0.11623 -0.0037,0.0304 -0.0109,0.0841 0.0069,0.11061 0.05705,-0.0165 0.0011,-7.9e-4 -0.134368,0.0797 -0.0038,0.002 0.0082,-0.003 0.01212,-0.006 0.01278,-0.007 0.0231,-0.0171 0.03136,-0.0291 0.01484,-0.0229 0.01828,-0.0514 0.02328,-0.0779 0.0047,-0.0237 0.0056,-0.0474 0.0088,-0.0714 0.0055,-0.0283 0.01508,-0.0554 0.02191,-0.0834 0.01161,-0.0368 0.02214,-0.0738 0.03106,-0.1113 0.0082,-0.0322 0.0127,-0.0656 0.0132,-0.0988 -3e-6,-0.0236 -5e-6,-0.0472 8e-6,-0.0708 2.1e-5,-0.0247 5.5e-5,-0.0493 1.9e-4,-0.074 1.64e-4,-0.0295 5.3e-4,-0.059 1.83e-4,-0.0885 -1.1e-5,-0.0255 -3e-6,-0.051 -1.61e-4,-0.0765 -5.3e-4,-0.0192 3.9e-5,-0.0395 -0.0064,-0.0578 -0.0029,0.001 -0.0013,2.6e-4 -0.0046,0.004 0.04791,-0.0281 0.09581,-0.0562 0.143711,-0.0842 0.0031,-0.002 -0.0073,0.002 -0.01326,0.009 -0.0019,0.002 -0.0031,0.005 -0.0047,0.008 -0.01349,0.0163 -0.01693,0.0374 -0.02551,0.0563 -0.0058,0.0228 -0.0136,0.0442 -0.02959,0.0619 -0.0082,0.0163 -0.0191,0.0307 -0.02778,0.0466 -0.01228,0.0124 -0.01693,0.0292 -0.02785,0.0427 -0.0081,0.0196 -0.01429,0.0401 -0.02635,0.0577 -0.0097,0.0224 -0.02355,0.0425 -0.03359,0.0647 -0.0118,0.0249 -0.03022,0.0462 -0.03954,0.0725 -0.0122,0.021 -0.02466,0.0428 -0.02999,0.0667 -0.0071,0.0243 -0.0097,0.0491 -0.01342,0.0742 -0.0033,0.0242 -0.0011,0.0488 -0.0016,0.0732 6e-5,0.0231 4.2e-5,0.0462 0.0019,0.0692 0.0026,0.0253 0.0079,0.05 0.01392,0.0747 0.0034,0.0252 0.0095,0.0497 0.01498,0.0745 0.0065,0.0209 0.01333,0.0428 0.02577,0.0609 0.01093,0.0135 0.01931,0.0306 0.0374,0.0354 0.06695,0.007 0.174575,-0.0834 -0.09576,0.0755 0.01696,-0.007 0.0309,-0.0202 0.03838,-0.0368 0.01783,-0.0272 0.03516,-0.0544 0.04801,-0.0845 0.01527,-0.0324 0.03283,-0.0634 0.04813,-0.0957 0.01307,-0.032 0.02741,-0.0641 0.03136,-0.0989 0.0071,-0.0353 0.01445,-0.0705 0.0204,-0.10604 0.0086,-0.0391 0.019,-0.0777 0.02543,-0.11729 0.007,-0.0469 0.0164,-0.0938 0.01434,-0.14146 -2.25e-4,-0.0398 -2.65e-4,-0.0796 -0.0026,-0.11925 -0.0026,-0.0315 -0.0065,-0.063 -0.01593,-0.0933 -0.0042,-0.0213 -0.008,-0.0431 -0.01556,-0.0633 -0.0122,-0.0165 -0.02625,-0.0119 -0.04263,-0.003 -0.0168,0.008 -0.03478,0.0143 -0.05117,0.0235 0.258918,-0.15129 0.14706,-0.0925 0.09487,-0.048 -0.01558,0.0169 -0.03321,0.032 -0.04549,0.0519 -0.0095,0.009 -0.01643,0.0204 -0.02764,0.0277 -0.0026,0.002 -0.0058,0.003 -0.0084,0.004 -0.0028,0.002 -0.0051,0.004 -0.0077,0.006 -0.0168,0.019 -0.03664,0.0352 -0.05039,0.0569 -0.01654,0.038 -0.0195,0.0806 -0.03349,0.11961 -0.02342,0.094 -0.03722,0.19021 -0.04303,0.28689 -2.09e-4,0.0419 7.94e-4,0.0839 0.0021,0.12579 0,0 -0.15625,0.0796 -0.15625,0.0796 z"
       inkscape:connector-curvature="0" />
    <path
       style="opacity:1;fill:#241c1c;fill-opacity:1;stroke:none;stroke-width:0.46499997;stroke-miterlimit:4;stroke-dasharray:none;stroke-opacity:1"
       id="path4612"
       d="m 62.054012,159.03142 c 0.07027,-0.0545 0.150987,-0.0929 0.227658,-0.13742 0.0049,-0.003 0.01963,-0.0104 0.01482,-0.008 -0.04516,0.0262 -0.09055,0.052 -0.135932,0.0778 -0.0037,0.002 0.0072,-0.005 0.01098,-0.007 0.05317,-0.0305 0.106101,-0.0614 0.159716,-0.0912 0.01442,-0.005 0.0078,-0.002 0.02014,-0.009 0.0089,-0.005 0.01863,-0.007 0.02843,-0.009 0,0 -0.13848,0.10643 -0.13848,0.10643 v 0 c -0.009,0.003 -0.01791,0.007 -0.02643,0.0112 -0.05515,0.0223 -0.124598,0.0695 0.118824,-0.0716 0.0038,-0.002 -0.0076,0.004 -0.0114,0.007 -0.163902,0.0951 -0.106392,0.0636 -0.174903,0.10088 -0.05595,0.0306 -0.05506,0.0303 0.115784,-0.0683 0.0049,-0.003 -0.0095,0.006 -0.01416,0.009 -0.01093,0.007 -0.02217,0.0145 -0.03207,0.0232 0,0 -0.162952,0.0648 -0.162952,0.0648 z"
       inkscape:connector-curvature="0" />
    <path
       style="fill:none;stroke:#000000;stroke-width:0.26458332px;stroke-linecap:butt;stroke-linejoin:miter;stroke-opacity:1"
       d="m 60.322638,158.56622 c 0.664198,-1.5518 2.393885,-1.41364 3.555337,-1.86626"
       id="path4616"
       inkscape:connector-curvature="0"
       sodipodi:nodetypes="cc" />
  </g>
  <g
     inkscape:groupmode="layer"
     id="layer6"
     inkscape:label="Tusk">
    <path
       style="fill:#f4eed7;stroke:#000000;stroke-width:0.26458332px;stroke-linecap:butt;stroke-linejoin:miter;stroke-opacity:1"
       d="m 65.578868,169.66927 c -5.858629,0.42523 -14.977306,4.34673 -16.961681,-1.27567 -1.984375,-5.6224 -1.464657,-6.70908 -1.464657,-6.70908 0,0 0.897692,5.95313 4.393973,7.03981 3.496278,1.08668 12.047989,-1.32292 12.047989,-1.32292"
       id="path4593"
       inkscape:connector-curvature="0"
       sodipodi:nodetypes="cscsc" />
  </g>
  <g
     inkscape:groupmode="layer"
     id="layer5"
     inkscape:label="Ear">
    <path
       style="fill:#843300;stroke:#000000;stroke-width:0.26458332px;stroke-linecap:butt;stroke-linejoin:miter;stroke-opacity:1;fill-opacity:1"
       d="m 77.674107,157.81027 c 4.819194,0.66146 6.425594,0.0945 5.480653,4.81919 -0.944938,4.7247 -0.566963,3.87426 -0.944938,4.8192 -0.377979,0.94494 -3.212799,6.80357 -5.008187,5.85863 -1.795386,-0.94494 -7.181546,-1.41741 -6.898063,-7.37054"
       id="path4533"
       inkscape:connector-curvature="0" />
  </g>
  <g
     inkscape:groupmode="layer"
     id="layer2"
     inkscape:label="Arm"
     style="display:inline">
    <path
       style="fill:#803300;stroke:#000000;stroke-width:0.26458332px;stroke-linecap:butt;stroke-linejoin:miter;stroke-opacity:1"
       d="m 76.162201,182.00074 -3.685268,14.45759 -9.732885,15.02455 -4.913691,-3.68526 7.181548,-12.7567 1.984375,-13.41815"
       id="path4521"
       inkscape:connector-curvature="0" />
    <path
       style="opacity:1;fill:#552200;fill-opacity:1;stroke:none;stroke-width:0.88766158;stroke-miterlimit:4;stroke-dasharray:none;stroke-opacity:1"
       d="m 228.30213,791.9217 c -4.58357,-3.47031 -8.40079,-6.49719 -8.48272,-6.72638 -0.0819,-0.22919 5.8567,-11.08431 13.19696,-24.12248 l 13.34592,-23.70577 3.72727,-25.21855 3.72726,-25.21854 8.83467,0.17173 c 11.96781,0.23264 23.62379,0.81198 24.00494,1.19313 0.17202,0.17202 -2.75389,12.37984 -6.50203,27.12849 l -6.81479,26.81571 -18.09932,28.00869 c -9.95463,15.40478 -18.21297,28.00305 -18.35186,27.99616 -0.1389,-0.007 -4.00273,-2.85187 -8.5863,-6.32219 z"
       id="path4584"
       inkscape:connector-curvature="0"
       transform="scale(0.26458333)" />
    <path
       style="opacity:1;fill:#803300;fill-opacity:1;stroke:none;stroke-width:0.88766158;stroke-miterlimit:4;stroke-dasharray:none;stroke-opacity:1"
       d="m 228.99961,792.58685 c -7.71873,-5.82327 -10.18303,-7.92461 -9.2934,-7.92461 0.2725,0 0.63807,-0.56821 0.81237,-1.26269 0.1743,-0.69448 0.53297,-1.26269 0.79705,-1.26269 0.26407,0 0.33966,-0.22728 0.16797,-0.50508 -0.17168,-0.27779 -0.058,-0.50507 0.25254,-0.50507 0.31058,0 0.42422,-0.22729 0.25254,-0.50508 -0.17169,-0.27779 -0.0715,-0.50507 0.22273,-0.50507 0.29418,0 0.53488,-0.25268 0.53488,-0.5615 0,-0.30883 5.26588,-9.91159 11.70196,-21.33948 l 11.70196,-20.77797 3.68423,-24.74874 c 2.02633,-13.6118 3.6924,-24.97602 3.70238,-25.25381 0.019,-0.52737 25.11917,-0.11024 30.14423,0.50096 2.2391,0.27234 2.63104,0.48656 2.83415,1.54904 0.12964,0.67815 0.0246,1.233 -0.23337,1.233 -0.25799,0 -0.33087,0.43544 -0.16196,0.96764 0.16892,0.53221 0.0805,1.1077 -0.19644,1.27887 -0.27696,0.17117 -0.38435,0.62187 -0.23865,1.00157 0.1457,0.37969 0.0321,0.83426 -0.25254,1.01015 -0.2846,0.17589 -0.39824,0.63046 -0.25253,1.01015 0.14569,0.3797 0.0184,0.84269 -0.28284,1.02888 -0.30127,0.18619 -0.42317,0.5401 -0.27091,0.78647 0.15227,0.24637 -0.0597,1.25344 -0.47106,2.23794 -0.41135,0.9845 -0.66416,1.79 -0.56182,1.79 0.10236,0 -2.14697,9.1482 -4.9985,20.32932 l -5.1846,20.32932 -18.01838,27.7792 c -9.91011,15.27856 -18.19434,27.83937 -18.40939,27.91291 -0.21506,0.0735 -3.80723,-2.44359 -7.9826,-5.59363 z"
       id="path4586"
       inkscape:connector-curvature="0"
       transform="scale(0.26458333)" />
    <path
       style="opacity:1;fill:#803300;fill-opacity:1;stroke:none;stroke-width:0.88766158;stroke-miterlimit:4;stroke-dasharray:none;stroke-opacity:1"
       d="m 232.84782,854.40822 c -2.68236,-0.24261 -5.04976,-0.77806 -6.30969,-1.42711 l -2.01653,-1.03882 2.12431,-0.57201 c 2.21609,-0.59673 3.67653,-2.09433 3.67653,-3.77007 0,-0.82224 0.28846,-0.69348 1.77366,0.79172 l 1.77367,1.77367 7.6742,0.31502 c 6.06653,0.24902 7.83759,0.17237 8.45413,-0.36589 0.42896,-0.3745 1.53935,-1.06582 2.46755,-1.53625 1.60102,-0.81146 2.00273,-0.80154 7.82868,0.1933 3.37758,0.57676 6.65962,1.0479 7.29341,1.04698 0.6338,-9.2e-4 2.51857,0.45856 4.18838,1.02108 5.96728,2.01023 6.8671,1.94129 12.51278,-0.9587 2.77261,-1.42419 5.47582,-2.58944 6.00713,-2.58944 0.79199,0 1.07702,0.60236 1.58209,3.34349 0.33884,1.83892 0.51041,3.44915 0.38126,3.57829 -0.41719,0.4172 -54.97483,0.59603 -59.41156,0.19474 z"
       id="path4588"
       inkscape:connector-curvature="0"
       transform="scale(0.26458333)" />
    <path
       style="opacity:1;fill:#803300;fill-opacity:1;stroke:none;stroke-width:0.88766158;stroke-miterlimit:4;stroke-dasharray:none;stroke-opacity:1"
       d="m 246.8091,969.32164 c -0.76102,-6.73645 -2.29292,-19.82852 -3.40422,-29.09349 -1.1113,-9.26497 -1.94708,-17.06577 -1.8573,-17.33511 0.0898,-0.26934 0.76186,-0.0188 1.49351,0.55669 0.73165,0.57552 1.57205,1.04639 1.86755,1.04639 0.29551,0 1.85065,0.6135 3.45587,1.36334 2.91081,1.35969 2.95831,1.36407 17.81834,1.64149 8.19486,0.15299 15.1539,0.44353 15.46452,0.64564 0.31063,0.20211 0.7129,1.4841 0.89394,2.84886 0.36549,2.75517 1.90544,5.11743 3.33604,5.11743 1.09504,0 0.75703,-1.42922 4.0362,17.06644 2.23765,12.62113 2.53327,15.11132 2.53327,21.33947 v 7.05095 H 270.3198 248.19278 Z"
       id="path4590"
       inkscape:connector-curvature="0"
       transform="scale(0.26458333)" />
    <path
       style="display:inline;fill:none;stroke:#000000;stroke-width:0.26458332px;stroke-linecap:butt;stroke-linejoin:miter;stroke-opacity:1"
       d="m 66.540946,185.91257 c -0.01114,0.0278 -0.02392,0.0551 -0.03341,0.0835 -0.0019,0.005 0,0.0111 0,0.0167 0,0.0111 0,0.0223 0,0.0334 0,0.039 0,0.078 0,0.11693 0,0.0142 -0.0028,0.0892 0,0.10023 0.0079,0.0317 0.02792,0.0446 0.05011,0.0668 0.0056,0.006 0.01421,0.009 0.0167,0.0167 0.0035,0.0106 -0.0067,0.0245 0,0.0334 0.01204,0.0161 0.03592,0.0192 0.05011,0.0334 0.0039,0.004 -0.0039,0.0128 0,0.0167 0.0088,0.009 0.02461,0.008 0.03341,0.0167 0.0039,0.004 -0.0031,0.0121 0,0.0167 0.0087,0.0131 0.02228,0.0223 0.03341,0.0334 0.0056,0.006 0.0097,0.0132 0.01669,0.0167 0.005,0.002 0.01143,-0.002 0.0167,0 0.0118,0.004 0.02228,0.0111 0.03341,0.0167 0.01114,0.006 0.02304,0.01 0.03341,0.0167 0.0066,0.004 0.0097,0.0132 0.01669,0.0167 0.005,0.002 0.01172,-0.002 0.01669,0 0.007,0.004 0.0097,0.0132 0.01669,0.0167 0.0091,0.005 0.03874,-0.003 0.05011,0 0.01709,0.004 0.03376,0.0102 0.05011,0.0167 0.03422,0.0137 0.06529,0.0385 0.100226,0.0501 0.0053,0.002 0.01143,-0.002 0.0167,0 0.0118,0.004 0.02159,0.0128 0.03341,0.0167 0.0053,0.002 0.01172,-0.002 0.01669,0 0.007,0.004 0.0097,0.0132 0.01669,0.0167 0.005,0.002 0.01114,0 0.0167,0 0.0056,0 0.01114,0 0.01669,0 0.01669,0 0.03341,0 0.05012,0 0.07238,0 0.144769,0 0.217156,0 0.02228,0 0.04521,-0.005 0.06682,0 0.02416,0.006 0.0437,0.0242 0.06682,0.0334 0.0052,0.002 0.01125,-10e-4 0.0167,0 0.02228,0.006 0.04454,0.0111 0.06681,0.0167 0.01669,0 0.03364,-0.003 0.05012,0 0.01736,0.003 0.03274,0.0138 0.05011,0.0167 0.01648,0.003 0.03358,-0.002 0.05011,0 0.02273,0.003 0.04417,0.0129 0.06682,0.0167 0.01505,0.002 0.07092,-0.005 0.08352,0 0.01863,0.007 0.03216,0.0244 0.05011,0.0334 0.0044,0.002 0.09267,0 0.100227,0 0.130297,0 -0.03169,-0.005 0.100224,0.0167 0.01648,0.003 0.03341,0 0.05012,0 0.01669,0 0.03341,0 0.05011,0 0.01114,0 0.02249,-0.002 0.03341,0 0.05987,0.012 0.106603,0.0582 0.167045,0.0668 0.02204,0.003 0.04454,0 0.06681,0 0.03898,0 0.07795,0 0.116933,0 0.007,0 0.09525,0.002 0.100224,0 0.007,-0.004 0.0092,-0.0142 0.01669,-0.0167 0.01056,-0.004 0.02244,0.002 0.03341,0 0.02265,-0.004 0.044,-0.0142 0.06681,-0.0167 0.02767,-0.003 0.05568,0 0.08352,0 0.06125,0 0.122497,0 0.183748,0 0.05011,0 0.100224,0 0.150339,0 0.01114,0 0.02241,0.002 0.03341,0 0.02265,-0.004 0.04409,-0.0135 0.06682,-0.0167 0.01654,-0.002 0.03341,0 0.05011,0 0.0167,0 0.03341,0 0.05011,0 0.0056,0 0.01143,0.002 0.0167,0 0.0118,-0.004 0.02159,-0.0128 0.03341,-0.0167 0.01585,-0.005 0.03391,0.004 0.05011,0 0.01209,-0.003 0.02159,-0.0128 0.03341,-0.0167 0.01479,-0.005 0.03476,0.003 0.05011,0 0.02252,-0.004 0.04409,-0.0135 0.06682,-0.0167 0.01654,-0.002 0.03373,0.003 0.05011,0 0.01222,-0.002 0.02132,-0.0137 0.03341,-0.0167 0.0108,-0.003 0.02259,0.003 0.03341,0 0.01209,-0.003 0.02119,-0.0143 0.03341,-0.0167 0.01638,-0.003 0.03341,0 0.05011,0 0.03898,0 0.07795,0 0.116932,0 0.07795,0 0.155906,0 0.23386,0 0.02784,0 0.05568,0 0.08352,0 0.02228,0 0.04468,-0.002 0.06682,0 0.02822,0.003 0.0553,0.0136 0.08352,0.0167 0.03874,0.004 0.07795,0 0.116933,0 0.06125,0 0.122496,0 0.183747,0 0.03341,0 0.06682,0 0.100225,0 0.0056,0 0.01278,0.004 0.01669,0 0.0039,-0.004 -0.0039,-0.0128 0,-0.0167 0.0039,-0.004 0.01114,0 0.0167,0 0.01114,0 0.02344,0.005 0.03341,0 0.01408,-0.007 0.0199,-0.0253 0.03341,-0.0334 0.03023,-0.0181 0.132797,-0.0317 0.150339,-0.0334 0.02217,-0.002 0.04482,0.003 0.06682,0 0.08413,-0.0133 0.16638,-0.0372 0.250565,-0.0501 0.06079,-0.009 0.122524,-0.0109 0.183748,-0.0167 0.05571,-0.005 0.111146,-0.014 0.167042,-0.0167 0.06118,-0.003 0.123061,0.008 0.183748,0 0.06291,-0.009 0.121039,-0.0402 0.183748,-0.0501 0.044,-0.007 0.08909,0 0.133636,0 0.05011,-0.006 0.100602,-0.008 0.150339,-0.0167 0.178906,-0.0298 0.112739,-0.0387 0.283974,-0.0501 0.06111,-0.004 0.122497,0 0.183748,0 0.122497,0 0.244996,0 0.367496,0 0.0063,0 0.0819,-0.002 0.08352,0 0.0069,0.007 0.01635,0.0459 0.03341,0.0501 0.01619,0.004 0.0346,-0.006 0.05011,0 0.01463,0.006 0.02082,0.024 0.03341,0.0334 0.0099,0.007 0.02273,0.0103 0.03341,0.0167 0.01722,0.0103 0.03215,0.0244 0.05011,0.0334 0.03341,0.0167 0,-0.0334 0.05011,0 0.01037,0.007 0.0079,0.0246 0.0167,0.0334 0.0039,0.004 0.01172,-0.002 0.01669,0 0.007,0.004 0.0097,0.0132 0.01669,0.0167 0.01336,0.007 0.03675,-0.007 0.05011,0 0.007,0.004 0.0097,0.0132 0.01669,0.0167 0.005,0.002 0.01143,-0.002 0.0167,0 0.02363,0.008 0.0424,0.0285 0.06682,0.0334 0.01638,0.003 0.03341,0 0.05011,0 0.01114,0 0.0245,-0.007 0.03341,0 0.01606,0.012 0.01921,0.0359 0.03341,0.0501 0.06519,0.0652 0.009,-0.004 0.05012,0.0167 0.01408,0.007 0.01931,0.0264 0.03341,0.0334 0.0043,0.002 0.08839,0 0.100227,0 0.0056,0 0.01172,-0.002 0.01669,0 0.01797,0.009 0.03215,0.0244 0.05011,0.0334 0.0092,0.005 0.144484,-0.002 0.150339,0 0.01947,0.005 0.03166,0.0255 0.05011,0.0334 0.04622,0.0198 0.07071,0.0136 0.116933,0.0334 0.02289,0.01 0.04319,0.0255 0.06682,0.0334 0.02114,0.007 0.04569,-0.007 0.06682,0 0.01495,0.005 0.01932,0.0264 0.03341,0.0334 0.006,0.003 0.0719,0 0.08352,0 0.05568,0 0.111363,0 0.167045,0"
       id="path4682"
       inkscape:connector-curvature="0" />
  </g>
</svg>
