<?xml version="1.0" encoding="UTF-8" standalone="no"?>
<!-- Created with Inkscape (http://www.inkscape.org/) -->

<svg
   xmlns:dc="http://purl.org/dc/elements/1.1/"
   xmlns:cc="http://creativecommons.org/ns#"
   xmlns:rdf="http://www.w3.org/1999/02/22-rdf-syntax-ns#"
   xmlns:svg="http://www.w3.org/2000/svg"
   xmlns="http://www.w3.org/2000/svg"
   xmlns:sodipodi="http://sodipodi.sourceforge.net/DTD/sodipodi-0.dtd"
   xmlns:inkscape="http://www.inkscape.org/namespaces/inkscape"
   width="210mm"
   height="297mm"
   viewBox="0 0 210 297"
   version="1.1"
   id="svg8"
   inkscape:version="0.92.0 r15299"
   sodipodi:docname="spring.svg">
  <defs
     id="defs2" />
  <sodipodi:namedview
     id="base"
     pagecolor="#ffffff"
     bordercolor="#666666"
     borderopacity="1.0"
     inkscape:pageopacity="0.0"
     inkscape:pageshadow="2"
     inkscape:zoom="0.49497475"
     inkscape:cx="312.06029"
     inkscape:cy="560"
     inkscape:document-units="mm"
     inkscape:current-layer="layer1"
     showgrid="false"
     inkscape:window-width="1366"
     inkscape:window-height="705"
     inkscape:window-x="-8"
     inkscape:window-y="-8"
     inkscape:window-maximized="1" />
  <metadata
     id="metadata5">
    <rdf:RDF>
      <cc:Work
         rdf:about="">
        <dc:format>image/svg+xml</dc:format>
        <dc:type
           rdf:resource="http://purl.org/dc/dcmitype/StillImage" />
        <dc:title></dc:title>
      </cc:Work>
    </rdf:RDF>
  </metadata>
  <g
     inkscape:label="Layer 1"
     inkscape:groupmode="layer"
     id="layer1">
    <path
       style="fill:none;stroke:#000000;stroke-width:0.26458332px;stroke-linecap:butt;stroke-linejoin:miter;stroke-opacity:1"
       d="m 66.882792,171.77131 c 32.505951,-9.82738 63.141018,1.2525 63.141018,1.2525 0,0 4.88682,4.26844 -0.40484,9.56011 -5.29167,5.29166 -2.51384,-5.20783 -31.742133,-5.20783 -29.636804,0 -30.597077,6.23105 -30.597077,6.23105 -2.566226,-2.51984 -2.745276,-9.31599 -0.396968,-11.83583 z"
       id="path4495"
       inkscape:connector-curvature="0"
       sodipodi:nodetypes="cccscc" />
    <path
       style="opacity:1;fill:#800000;fill-opacity:1;stroke:none;stroke-width:1.77532315;stroke-miterlimit:4;stroke-dasharray:none;stroke-opacity:1"
       d="m 469.38396,689.7649 c -20.80766,-12.18032 -42.66394,-17.534 -80.64686,-19.75436 -32.71056,-1.91216 -78.44529,0.95862 -102.23367,6.41724 -12.7531,2.92639 -23.68678,7.31858 -28.52259,11.45785 -2.2679,1.94124 -4.33614,3.52952 -4.59609,3.52952 -0.25995,0 -1.53626,-2.38649 -2.83624,-5.3033 -1.98077,-4.44434 -2.36904,-7.02122 -2.39724,-15.9099 -0.0287,-9.0586 0.30421,-11.2924 2.28124,-15.30551 2.26992,-4.60766 2.47244,-4.74142 10.42971,-6.88852 65.50472,-17.67508 136.09359,-17.51132 207.97374,0.48248 22.616,5.66148 23.4376,6.08678 27.30735,14.1354 4.48824,9.33504 0.0849,21.75201 -10.47782,29.54696 -4.43927,3.27601 -7.29264,2.85403 -16.28153,-2.40786 z"
       id="path4503"
       inkscape:connector-curvature="0"
       transform="scale(0.26458333)" />
    <path
       style="opacity:1;fill:#808080;fill-opacity:1;stroke:none;stroke-width:0.46499997;stroke-miterlimit:4;stroke-dasharray:none;stroke-opacity:1"
       id="path4511"
       d="m 103.38896,176.52377 c -1.4519,1.00723 -2.87731,2.0538 -4.373009,2.99565 -2.773693,1.77643 -5.649481,3.33533 -8.537919,4.9508 -2.100247,1.17464 8.332348,-4.81882 6.262923,-3.5907 -6.721671,3.98907 -4.628303,3.17188 -7.628025,4.30319 -2.453081,1.65856 0.289462,-0.20809 6.083917,-3.47098 0.111604,-0.0628 -0.194652,0.16652 -0.292008,0.24975 -0.297648,0.25446 -0.491651,0.47166 -0.689877,0.81003 -0.353703,0.87341 -0.350943,1.83424 -0.373822,2.76225 0.0075,1.0533 -0.05215,2.11098 0.04108,3.16119 0.192493,0.94275 0.790433,1.69278 1.550488,2.2523 0.856898,0.49042 1.850009,0.53256 2.812248,0.57484 1.208519,0.0366 2.417854,0.0194 3.626664,0.0108 1.10553,-0.008 2.21108,-0.0113 3.31663,-0.013 2.31049,-0.73141 8.02982,-4.31281 -5.709947,3.33666 -0.09772,0.0544 0.185883,-0.12893 0.258215,-0.21423 0.191291,-0.22558 0.221784,-0.42097 0.310752,-0.69725 0.19565,-0.99145 0.16747,-2.01025 0.16579,-3.01615 -0.004,-1.00495 -0.714267,-1.37293 -1.438366,-1.90109 -0.892934,-0.60209 -1.933601,-0.76807 -2.982132,-0.86181 -1.111723,-0.0636 -2.226339,-0.0547 -3.339488,-0.0544 -1.134187,0.0825 -2.36695,0.16155 -3.445592,0.55125 -0.431864,0.22353 -0.939742,0.21924 -1.390899,0.36575 -0.41225,0.13387 -0.770599,0.45936 -1.148842,0.66547 2.127551,-1.22189 4.247293,-2.45748 6.382652,-3.66568 0.128468,-0.0727 -0.232656,0.18319 -0.359907,0.25799 -2.370659,1.39343 -4.80128,2.68677 -7.13218,4.14575 -2.088851,1.30746 4.265059,-2.46997 6.405602,-3.69097 0.396812,-0.22635 -0.304183,0.20846 -0.72871,0.47321 -15.406013,8.93927 -4.09408,2.36526 -0.785051,0.483 0.13048,-0.0742 -0.246255,0.17175 -0.370498,0.25601 -0.34035,0.23079 -0.656519,0.48133 -0.983822,0.73016 -0.799737,0.6849 -1.38095,1.56242 -1.89412,2.47136 -0.440544,0.96005 -1.005795,1.86332 -1.34752,2.86442 -0.353648,1.29209 -0.36063,2.6418 -0.380304,3.9715 -0.0077,1.14424 -0.07667,2.29614 0.266237,3.40072 0.276016,0.88708 0.923157,1.52434 1.715735,1.97017 0.776314,0.59501 1.729711,0.85863 2.565059,1.34909 1.199089,0.74518 2.504104,1.28913 3.795035,1.8563 2.047999,1.00579 4.105413,2.0176 6.284013,2.71018 1.206558,0.36563 2.461818,0.42591 3.712578,0.44199 1.28556,0.004 2.57111,-0.002 3.85668,-0.001 1.2317,0.0379 2.45101,0.0429 3.46479,-0.72308 -12.539297,7.00463 -6.15669,4.77589 -5.11347,1.98744 0.30729,-1.2368 0.27412,-2.52848 0.27791,-3.79458 -0.019,-1.01128 -0.7055,-1.67219 -1.45396,-2.26346 -0.78362,-0.71776 -1.67683,-1.30796 -2.61684,-1.79936 -1.02503,-0.47264 -2.153509,-0.51515 -3.261629,-0.56146 -1.286153,-0.0368 -2.572901,-0.0244 -3.859334,-0.0157 -1.163251,-0.0357 -2.304134,0.002 -3.405608,0.40031 -0.999318,0.23792 -1.923666,0.66703 -2.903495,0.95558 -2.473849,1.53358 0.06222,-0.0445 6.044313,-3.43487 0.133861,-0.0759 -0.259453,0.16548 -0.388969,0.24855 -0.364053,0.2335 -0.69565,0.49543 -1.039405,0.75729 -0.791779,0.54928 -1.153557,1.27229 -1.532662,2.12928 -0.662051,1.47127 -1.747007,2.67696 -2.745158,3.92354 -0.94093,1.17265 -1.991569,2.24695 -2.932991,3.4193 -0.848381,1.07999 -1.453518,2.33527 -2.009423,3.58495 -0.467461,1.19044 -0.911694,2.38524 -1.169932,3.63966 -0.235791,1.06126 -0.203737,2.04851 0.12079,3.07622 0.339482,0.8969 0.657651,1.85271 1.191387,2.65673 0.643586,0.77393 1.237758,1.57752 2.152401,2.03519 1.2279,0.78148 2.647456,1.0816 4.021744,1.50154 2.693553,0.65781 5.350123,1.45492 8.036647,2.13826 2.693134,0.66628 5.331784,1.52655 7.977524,2.35574 1.36173,0.36567 2.78864,0.83475 4.21188,0.64451 2.11063,-2.19394 -0.35234,0.44387 -5.89979,3.09242 -0.23808,0.11367 0.28538,-0.44516 0.40175,-0.68194 0.36683,-0.74636 0.5586,-1.57283 0.78834,-2.36715 0.39118,-1.22711 0.61415,-2.49023 0.72439,-3.77048 0.0447,-0.92305 -0.54178,-1.30536 -1.35764,-1.50723 -0.95701,-0.29723 -1.87781,-0.69065 -2.83408,-0.98755 -0.91236,-0.33205 -1.80209,-0.59053 -2.774928,-0.70208 -1.545702,-0.20452 -3.085285,-0.43171 -4.64362,-0.54849 -1.30745,-0.0883 -2.618158,-0.0981 -3.928007,-0.10086 -1.248357,0.0276 -2.503041,-0.0872 -3.741703,0.0867 -1.124781,0.19748 -2.164588,0.65778 -3.298288,0.84807 -0.927714,0.11274 -1.803218,0.49186 -2.684251,0.793 -1.116838,0.47271 -2.21148,0.98205 -3.305638,1.50188 2.107306,-1.19763 4.193106,-2.43391 6.32192,-3.59289 0.151183,-0.0823 -0.267814,0.22039 -0.374865,0.35519 -0.511423,0.64398 -0.726217,1.5731 -0.9815,2.33548 -0.429689,1.30091 -0.745147,2.63907 -1.034466,3.97753 -0.04716,0.97613 -0.893458,2.10213 -0.565123,3.07413 1.158113,0.46045 2.503942,0.43389 3.737549,0.46748 1.689359,-0.12708 3.339777,-0.48636 5.015137,-0.71465 2.09872,-0.14951 4.182425,-0.35176 6.268908,-0.62605 1.32861,-0.18677 2.667526,-0.26286 4.007595,-0.29384 1.0728,-0.0164 2.14578,-0.0113 3.21866,-0.009 1.06506,0.002 2.13012,0.003 3.19518,0.004 0.71216,2.2e-4 0.35605,1.3e-4 1.06833,2.7e-4 0,0 -6.37237,4.62956 -6.37237,4.62956 v 0 c -0.71243,-2.1e-4 -0.35624,-8e-5 -1.06857,-2.7e-4 -1.065423,-7.9e-4 -2.13085,-0.002 -3.196274,-0.004 -1.066144,-7.9e-4 -2.132499,-0.004 -3.198373,0.0236 -1.300618,0.0443 -2.59864,0.13658 -3.890357,0.29874 -2.078871,0.23844 -4.166751,0.36236 -6.241735,0.63038 -1.702652,0.2755 -3.40473,0.6415 -5.138565,0.62426 -1.470655,-0.0761 -3.245903,-0.0245 -4.314291,-1.18198 -0.07342,-0.17987 -0.183613,-0.34881 -0.220268,-0.53959 -0.188971,-0.98361 0.500282,-2.0278 0.657622,-2.96556 0.237916,-1.37437 0.584382,-2.7344 0.9833,-4.07008 1.69395,-4.93852 0.697738,-3.20854 8.280146,-7.32994 1.100304,-0.5293 2.23349,-1.00014 3.370902,-1.4421 0.892377,-0.31649 1.806673,-0.56602 2.744034,-0.70624 1.10122,-0.26764 2.165506,-0.7025 3.311149,-0.75203 1.270484,-0.0651 2.543143,-0.0405 3.814966,-0.04 1.304716,0.0208 2.609607,0.0645 3.909234,0.18845 1.57456,0.15289 3.14006,0.37181 4.71178,0.54881 1.00164,0.15854 1.93745,0.47676 2.89419,0.80326 0.9369,0.34613 1.87688,0.67618 2.82093,1.00286 1.0566,0.45332 1.84311,1.18096 1.87055,2.40411 -0.0935,1.34005 -0.29237,2.66785 -0.71187,3.94925 -1.35064,4.39622 -1.68706,6.80993 -8.68754,7.94239 -1.46472,-0.0737 -2.87916,-0.4613 -4.25759,-0.95086 -2.583828,-0.89405 -5.189746,-1.73312 -7.846676,-2.38481 -2.716496,-0.71488 -5.435092,-1.41727 -8.166055,-2.07508 -1.466705,-0.39867 -2.949356,-0.75652 -4.247349,-1.58503 -0.938029,-0.61858 -1.64343,-1.4817 -2.348491,-2.34747 -0.554435,-0.87685 -0.928,-1.87053 -1.27344,-2.84446 -0.384003,-1.14528 -0.553572,-2.22186 -0.297408,-3.42647 0.220954,-1.32268 0.660247,-2.56472 1.139529,-3.81374 0.528524,-1.30891 1.159817,-2.57063 1.872197,-3.78887 1.029507,-1.12206 1.967394,-2.33564 3.029154,-3.43158 0.960535,-1.1963 1.993463,-2.35846 2.738686,-3.706 0.391798,-0.84723 0.528069,-1.86075 1.366414,-2.4029 0.395184,-0.432 0.875527,-0.83981 1.382919,-1.13412 7.230565,-4.19417 4.545912,-3.24377 7.554635,-4.2761 0.951539,-0.3531 1.926121,-0.62225 2.901994,-0.90131 1.167464,-0.22539 2.334891,-0.27191 3.523021,-0.22905 1.29546,8e-4 2.59232,-0.009 3.88644,0.0562 1.20396,0.0912 2.4035,0.23173 3.47405,0.83978 0.95889,0.55422 1.88704,1.1622 2.69377,1.92763 0.89591,0.77845 1.72668,1.61968 1.7777,2.87643 -0.01,1.32188 -0.008,2.64862 -0.13965,3.96494 -0.15468,0.73379 -0.38302,1.65433 -1.07814,2.08375 -2.34505,1.44868 -4.72193,2.84518 -7.08289,4.26777 -1.16967,0.43981 -2.41252,0.37968 -3.64572,0.37148 -1.3054,0.0133 -2.61151,0.0387 -3.916739,0.009 -1.286195,-0.0651 -2.563744,-0.2291 -3.777107,-0.68796 -2.134495,-0.81592 -4.156829,-1.88688 -6.261645,-2.77442 -1.366824,-0.52319 -2.719136,-1.08687 -3.977677,-1.84142 -0.873424,-0.44257 -1.800088,-0.7896 -2.581878,-1.39572 -0.890363,-0.61643 -1.673527,-1.37927 -1.999687,-2.4421 -0.386196,-1.18875 -0.40024,-2.40818 -0.342556,-3.64905 0.02506,-1.38095 0.01323,-2.7777 0.257204,-4.14077 0.263306,-1.1062 0.773443,-1.98817 1.282645,-2.99489 0.438991,-0.98695 1.029213,-1.91318 1.748242,-2.71577 0.376169,-0.41996 0.839391,-0.80727 1.325652,-1.09395 8.2324,-4.85352 10.376496,-6.08517 0.775833,-0.50233 2.433296,-1.6886 5.850779,-3.40858 7.826147,-4.62268 2.092841,-1.2863 -4.239032,2.48376 -6.365848,3.71306 -0.127413,0.0736 0.244573,-0.16374 0.366858,-0.24562 2.37073,-1.39688 4.74146,-2.79376 7.11219,-4.19064 0.829397,-0.44648 1.74544,-0.61715 2.646225,-0.87474 1.170387,-0.20153 2.349913,-0.41107 3.542329,-0.37233 1.138737,-0.002 2.281772,-0.0196 3.414312,0.12078 1.14676,0.17873 2.25013,0.49403 3.20182,1.18937 0.92102,0.6541 1.72624,1.3304 1.80739,2.54501 0.007,1.05388 0.0294,2.111 -0.0673,3.16175 -0.51392,3.70265 -4.72337,5.48255 -8.344249,5.63786 -1.101606,0.001 -2.203206,0.004 -3.304807,0.007 -1.224494,0.002 -2.450073,0.0118 -3.673425,-0.0495 -1.094382,-0.10457 -2.180037,-0.2881 -3.082758,-0.9668 -0.873728,-0.74664 -1.55553,-1.65429 -1.846643,-2.78555 -0.163412,-1.07655 -0.06988,-2.16972 -0.09494,-3.25619 0.0085,-1.00746 0.0053,-2.02566 0.215911,-3.01577 0.152942,-0.52852 0.328824,-1.09466 0.831665,-1.40144 6.690087,-4.08155 4.579824,-3.0952 7.434035,-4.40585 0.134961,-0.0722 0.537181,-0.29356 0.404878,-0.2166 -2.099524,1.22131 -8.42931,4.83066 -6.306783,3.64978 1.815275,-1.00993 15.976476,-9.24467 1.055839,-0.57412 -0.445709,0.259 1.917403,-1.10312 1.31142,-0.81966 1.493708,-0.84222 2.855526,-1.87611 4.255315,-2.86018 0,0 7.371842,-2.93168 7.371842,-2.93168 z"
       inkscape:connector-curvature="0" />
  </g>
</svg>
